<svg width="3617" height="1841" viewBox="0 0 3617 1841" fill="none" xmlns="http://www.w3.org/2000/svg">
<rect width="3617" height="1840.92" fill="#111B12"/>
<path fill-rule="evenodd" clip-rule="evenodd" d="M1111.09 857.894C1116.83 877.216 1119.9 897.68 1119.9 918.863C1119.9 938.42 1117.28 957.364 1112.37 975.363L1180 1049.81L1020.3 1194.89L958.128 1126.45C941.41 1130.65 923.912 1132.87 905.893 1132.87C892.105 1132.87 878.622 1131.57 865.56 1129.08L793.716 1200.92L641.151 1048.36L702.845 986.664C695.733 965.357 691.882 942.56 691.882 918.863C691.882 899.61 694.424 880.952 699.191 863.205L640 798.049L799.7 652.969L852.85 711.476C869.812 707.15 887.584 704.851 905.893 704.851C922.312 704.851 938.299 706.7 953.658 710.201L1023.86 640L1176.42 792.565L1111.09 857.894ZM777.476 918.863C777.476 989.785 834.97 1047.28 905.893 1047.28C976.816 1047.28 1034.31 989.785 1034.31 918.863C1034.31 847.94 976.816 790.446 905.893 790.446C834.97 790.446 777.476 847.94 777.476 918.863Z" fill="#FC9A59"/>
<path d="M1351.91 855.961C1350.43 855.961 1349.53 855.223 1349.2 853.747L1304.67 697.783C1304.18 695.815 1305 694.831 1307.13 694.831H1326.81C1328.45 694.831 1329.44 695.569 1329.77 697.045L1356.09 792.493C1357.24 796.429 1358.3 800.529 1359.29 804.793C1360.27 809.057 1361.25 813.321 1362.24 817.585C1363.22 821.685 1364.21 825.703 1365.19 829.639H1365.44C1367.08 823.899 1368.72 818.241 1370.36 812.665C1372.16 806.925 1373.96 801.267 1375.77 795.691L1395.45 730.993L1386.59 700.489C1386.26 699.669 1386.35 699.013 1386.84 698.521C1387.33 697.865 1387.99 697.537 1388.81 697.537H1408.73C1410.37 697.537 1411.36 698.357 1411.68 699.997L1438.01 797.167C1439.65 802.579 1441.12 807.991 1442.43 813.403C1443.75 818.815 1445.14 824.227 1446.62 829.639H1446.86C1447.68 825.867 1448.58 821.849 1449.57 817.585C1450.55 813.321 1451.54 809.057 1452.52 804.793C1453.5 800.529 1454.49 796.429 1455.47 792.493L1480.81 697.045C1481.14 695.569 1482.12 694.831 1483.76 694.831H1504.18C1506.31 694.831 1507.05 695.815 1506.39 697.783L1463.59 853.747C1463.26 855.223 1462.28 855.961 1460.64 855.961H1434.56C1432.92 855.961 1431.94 855.223 1431.61 853.747L1415.87 799.135C1414.23 793.559 1412.67 788.065 1411.19 782.653C1409.72 777.077 1408.24 771.501 1406.76 765.925H1406.27C1404.8 771.337 1403.24 776.749 1401.6 782.161C1400.12 787.573 1398.48 793.067 1396.68 798.643L1380.2 853.747C1379.87 854.567 1379.46 855.141 1378.97 855.469C1378.64 855.797 1378.06 855.961 1377.24 855.961H1351.91ZM1588.46 858.913C1567.47 858.913 1551.73 853.829 1541.23 843.661C1530.9 833.329 1525.73 818.733 1525.73 799.873V750.919C1525.73 731.895 1530.9 717.299 1541.23 707.131C1551.73 696.963 1567.47 691.879 1588.46 691.879C1609.45 691.879 1625.12 696.963 1635.45 707.131C1645.94 717.299 1651.19 731.895 1651.19 750.919V799.873C1651.19 818.733 1645.94 833.329 1635.45 843.661C1625.12 853.829 1609.45 858.913 1588.46 858.913ZM1588.46 837.019C1600.93 837.019 1610.36 833.821 1616.75 827.425C1623.15 820.865 1626.35 811.435 1626.35 799.135V751.657C1626.35 739.193 1623.15 729.763 1616.75 723.367C1610.36 716.971 1600.93 713.773 1588.46 713.773C1576.16 713.773 1566.73 716.971 1560.17 723.367C1553.78 729.763 1550.58 739.193 1550.58 751.657V799.135C1550.58 811.435 1553.78 820.865 1560.17 827.425C1566.73 833.821 1576.16 837.019 1588.46 837.019ZM1690.43 855.961C1688.62 855.961 1687.72 855.059 1687.72 853.255V697.537C1687.72 695.733 1688.62 694.831 1690.43 694.831H1721.67C1723.31 694.831 1724.37 695.487 1724.87 696.799L1768.16 784.129C1771.11 790.033 1773.74 795.445 1776.03 800.365C1778.49 805.285 1780.63 809.959 1782.43 814.387C1784.4 818.815 1786.2 823.079 1787.84 827.179H1788.33C1788.33 823.899 1788.25 820.373 1788.09 816.601C1788.09 812.829 1788.01 809.057 1787.84 805.285C1787.84 801.349 1787.84 797.577 1787.84 793.969C1787.84 790.197 1787.84 786.589 1787.84 783.145V697.537C1787.84 695.733 1788.66 694.831 1790.3 694.831H1809.49C1811.29 694.831 1812.2 695.733 1812.2 697.537V853.255C1812.2 855.059 1811.29 855.961 1809.49 855.961H1778.49C1777.02 855.961 1776.03 855.305 1775.54 853.993L1733.23 769.123C1730.61 763.875 1728.06 758.709 1725.6 753.625C1723.31 748.541 1721.01 743.539 1718.72 738.619C1716.42 733.535 1714.21 728.615 1712.07 723.859H1711.58C1711.58 727.959 1711.58 731.977 1711.58 735.913C1711.75 739.685 1711.83 743.539 1711.83 747.475C1711.99 751.247 1712.07 755.101 1712.07 759.037C1712.07 762.973 1712.07 766.991 1712.07 771.091V853.255C1712.07 855.059 1711.17 855.961 1709.37 855.961H1690.43ZM1854.03 855.961C1852.22 855.961 1851.32 855.059 1851.32 853.255V697.537C1851.32 695.733 1852.22 694.831 1854.03 694.831H1873.46C1875.26 694.831 1876.17 695.733 1876.17 697.537V853.255C1876.17 855.059 1875.26 855.961 1873.46 855.961H1854.03ZM1902.92 855.961C1901.11 855.961 1900.21 855.141 1900.21 853.501V852.763C1900.21 851.779 1900.62 850.631 1901.44 849.319L1971.3 741.079C1973.93 736.979 1976.47 732.961 1978.93 729.025C1981.55 725.089 1984.26 721.071 1987.05 716.971V716.725C1982.46 716.889 1977.78 716.971 1973.03 716.971C1968.43 716.971 1963.76 716.971 1959 716.971H1910.79C1908.98 716.971 1908.08 716.069 1908.08 714.265V697.537C1908.08 695.733 1908.98 694.831 1910.79 694.831H2023.21C2025.01 694.831 2025.92 695.651 2025.92 697.291V698.029C2025.92 698.685 2025.83 699.341 2025.67 699.997C2025.51 700.489 2025.26 700.981 2024.93 701.473L1955.81 807.253C1952.85 811.845 1949.98 816.355 1947.2 820.783C1944.41 825.047 1941.46 829.393 1938.34 833.821V834.067C1943.59 833.903 1948.84 833.821 1954.08 833.821C1959.33 833.821 1964.58 833.821 1969.83 833.821H2017.55C2019.36 833.821 2020.26 834.723 2020.26 836.527V853.255C2020.26 855.059 2019.36 855.961 2017.55 855.961H1902.92ZM2053.42 855.961C2051.62 855.961 2050.71 855.059 2050.71 853.255V697.537C2050.71 695.733 2051.62 694.831 2053.42 694.831H2143.95C2145.59 694.831 2146.41 695.733 2146.41 697.537V714.265C2146.41 716.069 2145.59 716.971 2143.95 716.971H2075.56V763.711H2138.04C2139.68 763.711 2140.5 764.531 2140.5 766.171V782.161C2140.5 783.965 2139.68 784.867 2138.04 784.867H2075.56V833.821H2143.95C2145.59 833.821 2146.41 834.723 2146.41 836.527V853.255C2146.41 855.059 2145.59 855.961 2143.95 855.961H2053.42ZM2289.13 858.913C2276.99 858.913 2266.58 856.617 2257.89 852.025C2249.19 847.433 2242.47 840.709 2237.71 831.853C2232.96 822.997 2230.58 812.337 2230.58 799.873V750.919C2230.58 732.223 2236.16 717.709 2247.31 707.377C2258.62 697.045 2274.12 691.879 2293.8 691.879C2307.41 691.879 2319.06 694.093 2328.73 698.521C2338.41 702.949 2345.54 709.181 2350.14 717.217C2354.89 725.253 2356.45 734.601 2354.81 745.261C2354.65 747.065 2353.74 747.967 2352.1 747.967L2332.42 747.721C2330.62 747.721 2329.8 746.819 2329.96 745.015C2330.46 738.291 2329.39 732.633 2326.77 728.041C2324.14 723.285 2320.12 719.677 2314.71 717.217C2309.46 714.757 2302.66 713.527 2294.29 713.527C2281.5 713.527 2271.83 716.643 2265.27 722.875C2258.71 729.107 2255.43 738.537 2255.43 751.165V799.627C2255.43 812.255 2258.54 821.685 2264.77 827.917C2271.17 834.149 2280.68 837.265 2293.31 837.265C2305.94 837.265 2315.53 834.231 2322.09 828.163C2328.82 821.931 2332.18 813.075 2332.18 801.595V792.739H2296.02C2294.21 792.739 2293.31 791.919 2293.31 790.279V775.519C2293.31 773.715 2294.21 772.813 2296.02 772.813H2352.84C2353.66 772.813 2354.32 773.059 2354.81 773.551C2355.3 774.043 2355.55 774.699 2355.55 775.519V822.505C2355.55 827.753 2355.63 833.001 2355.79 838.249C2356.12 843.333 2356.61 848.253 2357.27 853.009C2357.6 853.993 2357.52 854.731 2357.02 855.223C2356.53 855.715 2355.88 855.961 2355.06 855.961H2339.07C2338.41 855.961 2337.84 855.797 2337.34 855.469C2336.85 855.141 2336.52 854.567 2336.36 853.747C2335.87 851.615 2335.46 849.237 2335.13 846.613C2334.97 843.989 2334.8 841.201 2334.64 838.249H2334.39C2331.44 842.841 2327.67 846.695 2323.08 849.811C2318.65 852.763 2313.56 854.977 2307.82 856.453C2302.08 858.093 2295.85 858.913 2289.13 858.913ZM2397.68 855.961C2395.87 855.961 2394.97 855.059 2394.97 853.255V697.537C2394.97 695.733 2395.87 694.831 2397.68 694.831H2446.88C2467.21 694.831 2482.14 698.685 2491.65 706.393C2501.16 714.101 2505.92 725.499 2505.92 740.587C2505.92 752.231 2503.21 761.989 2497.8 769.861C2492.39 777.569 2484.51 782.899 2474.18 785.851V786.097L2514.77 852.763C2515.26 853.583 2515.35 854.321 2515.02 854.977C2514.69 855.633 2513.95 855.961 2512.8 855.961H2490.17C2488.7 855.961 2487.63 855.387 2486.97 854.239L2448.11 789.295H2419.82V853.255C2419.82 855.059 2418.91 855.961 2417.11 855.961H2397.68ZM2419.82 769.615H2445.15C2457.78 769.615 2466.88 767.401 2472.46 762.973C2478.2 758.545 2481.07 751.493 2481.07 741.817C2481.07 732.469 2478.45 725.827 2473.2 721.891C2467.95 717.955 2459.09 715.987 2446.63 715.987H2419.82V769.615ZM2602.01 858.913C2581.02 858.913 2565.28 853.829 2554.78 843.661C2544.45 833.329 2539.28 818.733 2539.28 799.873V750.919C2539.28 731.895 2544.45 717.299 2554.78 707.131C2565.28 696.963 2581.02 691.879 2602.01 691.879C2623 691.879 2638.67 696.963 2649 707.131C2659.49 717.299 2664.74 731.895 2664.74 750.919V799.873C2664.74 818.733 2659.49 833.329 2649 843.661C2638.67 853.829 2623 858.913 2602.01 858.913ZM2602.01 837.019C2614.48 837.019 2623.91 833.821 2630.3 827.425C2636.7 820.865 2639.9 811.435 2639.9 799.135V751.657C2639.9 739.193 2636.7 729.763 2630.3 723.367C2623.91 716.971 2614.48 713.773 2602.01 713.773C2589.71 713.773 2580.28 716.971 2573.72 723.367C2567.33 729.763 2564.13 739.193 2564.13 751.657V799.135C2564.13 811.435 2567.33 820.865 2573.72 827.425C2580.28 833.821 2589.71 837.019 2602.01 837.019ZM2761.29 858.913C2741.61 858.913 2726.44 853.911 2715.78 843.907C2705.29 833.739 2700.04 818.979 2700.04 799.627V697.537C2700.04 695.733 2700.94 694.831 2702.74 694.831H2722.18C2723 694.831 2723.65 695.077 2724.15 695.569C2724.64 695.897 2724.88 696.553 2724.88 697.537V799.627C2724.88 811.599 2727.92 820.865 2733.99 827.425C2740.22 833.985 2749.32 837.265 2761.29 837.265C2773.26 837.265 2782.28 833.985 2788.35 827.425C2794.58 820.865 2797.7 811.599 2797.7 799.627V697.537C2797.7 695.733 2798.52 694.831 2800.16 694.831H2819.84C2821.64 694.831 2822.55 695.733 2822.55 697.537V799.873C2822.55 818.569 2817.13 833.083 2806.31 843.415C2795.49 853.747 2780.48 858.913 2761.29 858.913ZM2863.25 855.961C2861.45 855.961 2860.54 855.059 2860.54 853.255V697.537C2860.54 695.733 2861.45 694.831 2863.25 694.831H2906.3C2926.8 694.831 2942.05 699.177 2952.06 707.869C2962.22 716.561 2967.31 729.271 2967.31 745.999C2967.31 762.727 2962.14 775.437 2951.81 784.129C2941.64 792.821 2926.47 797.167 2906.3 797.167H2885.39V853.255C2885.39 855.059 2884.49 855.961 2882.68 855.961H2863.25ZM2885.39 776.257H2905.81C2918.44 776.257 2927.7 773.879 2933.61 769.123C2939.51 764.367 2942.46 756.905 2942.46 746.737C2942.46 735.913 2939.43 728.123 2933.36 723.367C2927.46 718.447 2918.19 715.987 2905.56 715.987H2885.39V776.257Z" fill="#B36D3F"/>
<path d="M1318.91 1152.96C1316.49 1152.96 1315.28 1151.75 1315.28 1149.34V986.942C1315.28 984.525 1316.49 983.316 1318.91 983.316H1426.65C1428.9 983.316 1430.02 984.525 1430.02 986.942V1016.73C1430.02 1019.14 1428.9 1020.35 1426.65 1020.35H1358.02V1052.47H1416.81C1419.05 1052.47 1420.18 1053.68 1420.18 1056.1V1085.1C1420.18 1087.35 1419.05 1088.47 1416.81 1088.47H1358.02V1149.34C1358.02 1151.75 1356.89 1152.96 1354.65 1152.96H1318.91ZM1519.53 1156.07C1495.36 1156.07 1477.05 1150.37 1464.62 1138.98C1452.19 1127.58 1445.97 1110.74 1445.97 1088.47V1047.81C1445.97 1025.36 1452.19 1008.53 1464.62 997.302C1477.05 985.906 1495.36 980.208 1519.53 980.208C1543.7 980.208 1562.01 985.906 1574.44 997.302C1587.04 1008.53 1593.34 1025.36 1593.34 1047.81V1088.47C1593.34 1110.74 1587.04 1127.58 1574.44 1138.98C1562.01 1150.37 1543.7 1156.07 1519.53 1156.07ZM1519.53 1118.77C1530.06 1118.77 1537.83 1115.92 1542.84 1110.23C1548.02 1104.53 1550.61 1096.33 1550.61 1085.62V1050.66C1550.61 1039.95 1548.02 1031.75 1542.84 1026.05C1537.83 1020.35 1530.06 1017.5 1519.53 1017.5C1509.17 1017.5 1501.4 1020.35 1496.22 1026.05C1491.21 1031.75 1488.71 1039.95 1488.71 1050.66V1085.62C1488.71 1096.33 1491.21 1104.53 1496.22 1110.23C1501.4 1115.92 1509.17 1118.77 1519.53 1118.77ZM1691.27 1156.07C1667.61 1156.07 1649.74 1150.63 1637.66 1139.75C1625.57 1128.87 1619.53 1111.95 1619.53 1088.99V986.942C1619.53 984.525 1620.73 983.316 1623.15 983.316H1658.89C1659.76 983.316 1660.53 983.662 1661.22 984.352C1661.92 984.87 1662.26 985.734 1662.26 986.942V1086.92C1662.26 1097.1 1664.42 1105.05 1668.74 1110.74C1673.22 1116.44 1680.74 1119.29 1691.27 1119.29C1701.63 1119.29 1708.97 1116.44 1713.28 1110.74C1717.77 1105.05 1720.02 1097.1 1720.02 1086.92V986.942C1720.02 984.525 1721.23 983.316 1723.64 983.316H1759.13C1761.54 983.316 1762.75 984.525 1762.75 986.942V1088.99C1762.75 1111.78 1756.71 1128.7 1744.62 1139.75C1732.54 1150.63 1714.75 1156.07 1691.27 1156.07ZM1795.68 1152.96C1793.26 1152.96 1792.05 1151.75 1792.05 1149.34V986.942C1792.05 984.525 1793.26 983.316 1795.68 983.316H1841C1842.9 983.316 1844.29 984.18 1845.15 985.906L1877.78 1050.92C1880.2 1055.75 1882.7 1060.93 1885.29 1066.46C1887.88 1071.98 1890.21 1077.42 1892.29 1082.77C1894.53 1088.13 1896.34 1092.87 1897.73 1097.02H1898.5C1898.16 1093.74 1897.81 1090.02 1897.47 1085.88C1897.29 1081.74 1897.04 1077.51 1896.69 1073.19C1896.52 1068.87 1896.34 1064.64 1896.17 1060.5C1896.17 1056.35 1896.17 1052.64 1896.17 1049.36V986.942C1896.17 984.525 1897.29 983.316 1899.54 983.316H1933.73C1936.14 983.316 1937.35 984.525 1937.35 986.942V1149.34C1937.35 1151.75 1936.14 1152.96 1933.73 1152.96H1888.4C1886.68 1152.96 1885.29 1152.1 1884.26 1150.37L1853.18 1088.47C1850.76 1083.81 1848.34 1078.63 1845.93 1072.93C1843.68 1067.23 1841.44 1061.62 1839.19 1056.1C1836.95 1050.4 1834.88 1045.39 1832.98 1041.07H1832.2C1832.37 1044.7 1832.54 1048.58 1832.72 1052.73C1832.89 1056.87 1832.98 1061.19 1832.98 1065.68C1833.15 1070 1833.23 1074.23 1833.23 1078.37C1833.23 1082.51 1833.23 1086.48 1833.23 1090.28V1149.34C1833.23 1151.75 1832.03 1152.96 1829.61 1152.96H1795.68ZM1971.47 1152.96C1969.05 1152.96 1967.84 1151.75 1967.84 1149.34V986.942C1967.84 984.525 1969.05 983.316 1971.47 983.316H2032.33C2059.61 983.316 2079.81 989.619 2092.94 1002.22C2106.06 1014.66 2112.62 1033.13 2112.62 1057.65V1076.56C2112.62 1101.77 2106.06 1120.85 2092.94 1133.8C2079.81 1146.57 2059.61 1152.96 2032.33 1152.96H1971.47ZM2010.58 1116.44H2029.48C2043.47 1116.44 2053.66 1112.9 2060.04 1105.82C2066.61 1098.57 2069.89 1088.3 2069.89 1075V1059.2C2069.89 1046.6 2066.61 1036.93 2060.04 1030.2C2053.66 1023.29 2043.47 1019.84 2029.48 1019.84H2010.58V1116.44ZM2119.04 1152.96C2116.27 1152.96 2115.32 1151.58 2116.19 1148.82L2170.06 986.165C2170.75 984.266 2172.13 983.316 2174.2 983.316H2220.3C2222.38 983.316 2223.76 984.266 2224.45 986.165L2278.58 1148.82C2278.92 1150.03 2278.84 1151.06 2278.32 1151.93C2277.98 1152.62 2277.11 1152.96 2275.73 1152.96H2236.88C2234.64 1152.96 2233.25 1152.01 2232.74 1150.11L2206.58 1056.35C2204.85 1050.14 2203.21 1043.92 2201.66 1037.71C2200.1 1031.49 2198.63 1025.36 2197.25 1019.32H2196.74C2195.35 1025.53 2193.89 1031.75 2192.33 1037.97C2190.78 1044.18 2189.14 1050.4 2187.41 1056.61L2161.77 1149.85C2161.25 1151.93 2159.87 1152.96 2157.63 1152.96H2119.04ZM2163.07 1122.66L2169.8 1089.25H2223.41L2230.41 1122.66H2163.07ZM2316.79 1152.96C2314.54 1152.96 2313.42 1151.75 2313.42 1149.34V1020.35H2270.94C2268.53 1020.35 2267.32 1019.14 2267.32 1016.73V986.942C2267.32 984.525 2268.53 983.316 2270.94 983.316H2398.37C2400.62 983.316 2401.74 984.525 2401.74 986.942V1016.73C2401.74 1019.14 2400.62 1020.35 2398.37 1020.35H2355.9V1149.34C2355.9 1151.75 2354.69 1152.96 2352.27 1152.96H2316.79ZM2425.47 1152.96C2423.06 1152.96 2421.85 1151.75 2421.85 1149.34V986.942C2421.85 984.525 2423.06 983.316 2425.47 983.316H2460.96C2463.38 983.316 2464.58 984.525 2464.58 986.942V1149.34C2464.58 1151.75 2463.38 1152.96 2460.96 1152.96H2425.47ZM2565.65 1156.07C2541.47 1156.07 2523.17 1150.37 2510.74 1138.98C2498.31 1127.58 2492.09 1110.74 2492.09 1088.47V1047.81C2492.09 1025.36 2498.31 1008.53 2510.74 997.302C2523.17 985.906 2541.47 980.208 2565.65 980.208C2589.82 980.208 2608.12 985.906 2620.55 997.302C2633.16 1008.53 2639.46 1025.36 2639.46 1047.81V1088.47C2639.46 1110.74 2633.16 1127.58 2620.55 1138.98C2608.12 1150.37 2589.82 1156.07 2565.65 1156.07ZM2565.65 1118.77C2576.18 1118.77 2583.95 1115.92 2588.96 1110.23C2594.14 1104.53 2596.73 1096.33 2596.73 1085.62V1050.66C2596.73 1039.95 2594.14 1031.75 2588.96 1026.05C2583.95 1020.35 2576.18 1017.5 2565.65 1017.5C2555.29 1017.5 2547.52 1020.35 2542.34 1026.05C2537.33 1031.75 2534.83 1039.95 2534.83 1050.66V1085.62C2534.83 1096.33 2537.33 1104.53 2542.34 1110.23C2547.52 1115.92 2555.29 1118.77 2565.65 1118.77ZM2670.56 1152.96C2668.15 1152.96 2666.94 1151.75 2666.94 1149.34V986.942C2666.94 984.525 2668.15 983.316 2670.56 983.316H2715.89C2717.79 983.316 2719.17 984.18 2720.03 985.906L2752.67 1050.92C2755.08 1055.75 2757.59 1060.93 2760.18 1066.46C2762.77 1071.98 2765.1 1077.42 2767.17 1082.77C2769.42 1088.13 2771.23 1092.87 2772.61 1097.02H2773.39C2773.04 1093.74 2772.7 1090.02 2772.35 1085.88C2772.18 1081.74 2771.92 1077.51 2771.57 1073.19C2771.4 1068.87 2771.23 1064.64 2771.06 1060.5C2771.06 1056.35 2771.06 1052.64 2771.06 1049.36V986.942C2771.06 984.525 2772.18 983.316 2774.42 983.316H2808.61C2811.03 983.316 2812.24 984.525 2812.24 986.942V1149.34C2812.24 1151.75 2811.03 1152.96 2808.61 1152.96H2763.29C2761.56 1152.96 2760.18 1152.1 2759.14 1150.37L2728.06 1088.47C2725.64 1083.81 2723.23 1078.63 2720.81 1072.93C2718.57 1067.23 2716.32 1061.62 2714.08 1056.1C2711.83 1050.4 2709.76 1045.39 2707.86 1041.07H2707.08C2707.26 1044.7 2707.43 1048.58 2707.6 1052.73C2707.77 1056.87 2707.86 1061.19 2707.86 1065.68C2708.03 1070 2708.12 1074.23 2708.12 1078.37C2708.12 1082.51 2708.12 1086.48 2708.12 1090.28V1149.34C2708.12 1151.75 2706.91 1152.96 2704.49 1152.96H2670.56ZM2899.96 1156.07C2884.42 1156.07 2871.65 1154.17 2861.63 1150.37C2851.79 1146.4 2844.71 1140.44 2840.39 1132.5C2836.25 1124.56 2834.69 1114.63 2835.73 1102.72C2836.08 1100.13 2837.37 1098.83 2839.62 1098.83H2874.32C2876.74 1098.83 2877.86 1099.95 2877.69 1102.2C2877.52 1107.9 2879.33 1112.3 2883.13 1115.41C2887.1 1118.34 2893.14 1119.81 2901.26 1119.81C2909.37 1119.81 2915.24 1118.77 2918.87 1116.7C2922.67 1114.63 2924.57 1111.35 2924.57 1106.86C2924.57 1104.96 2924.14 1103.23 2923.27 1101.68C2922.41 1099.95 2920.86 1098.4 2918.61 1097.02C2916.37 1095.46 2913.26 1093.91 2909.29 1092.36L2872.25 1076.04C2863.27 1072.07 2856.28 1067.84 2851.27 1063.35C2846.26 1058.69 2842.72 1053.51 2840.65 1047.81C2838.58 1041.94 2837.54 1035.2 2837.54 1027.61C2837.72 1012.58 2842.9 1000.93 2853.08 992.64C2863.27 984.352 2878.55 980.208 2898.93 980.208C2914.12 980.208 2926.73 982.194 2936.74 986.165C2946.76 989.964 2954.01 995.662 2958.5 1003.26C2963.16 1010.68 2964.89 1020.27 2963.68 1032.01C2963.5 1034.94 2962.3 1036.41 2960.05 1036.41H2925.34C2924.14 1036.41 2923.19 1036.07 2922.5 1035.38C2921.98 1034.51 2921.81 1033.39 2921.98 1032.01C2922.32 1027.35 2920.51 1023.46 2916.54 1020.35C2912.74 1017.25 2907.21 1015.69 2899.96 1015.69C2893.4 1015.69 2888.48 1016.81 2885.2 1019.06C2881.92 1021.13 2880.28 1024.24 2880.28 1028.38C2880.28 1030.45 2880.8 1032.35 2881.83 1034.08C2882.87 1035.63 2884.51 1037.19 2886.75 1038.74C2889 1040.12 2892.02 1041.68 2895.82 1043.4L2932.6 1059.2C2941.4 1063 2948.4 1067.15 2953.58 1071.64C2958.76 1076.12 2962.38 1081.39 2964.45 1087.43C2966.53 1093.31 2967.48 1100.13 2967.3 1107.9C2967.13 1123.78 2961.78 1135.78 2951.24 1143.9C2940.71 1152.01 2923.62 1156.07 2899.96 1156.07Z" fill="#FC9A59"/>
</svg>
