<svg width="170" height="170" viewBox="0 0 170 170" fill="none" xmlns="http://www.w3.org/2000/svg">
<path d="M136.5 0H33.5C26.5964 0 21 5.59644 21 12.5V115.5C21 122.404 26.5964 128 33.5 128H136.5C143.404 128 149 122.404 149 115.5V12.5C149 5.59644 143.404 0 136.5 0Z" fill="#3178C6"/>
<path d="M89.8183 70.0723L113.5 56.1598L137.182 70.0723V97.9277L113.5 111.84L89.8183 97.9277V70.0723Z" fill="#3178C6" stroke="#E8E8EF" stroke-width="2"/>
<path d="M99.6836 88.7559V72.7479L127.143 88.7559L114.83 95.8319H111.997L99.6836 88.7559Z" fill="#E8E8EF"/>
<path d="M113.558 93.5119H113.211L102.4 87.1319V77.3879L121.709 88.6399L113.558 93.5119Z" fill="#3178C6"/>
<path d="M127.143 72.7479L113.326 80.7519L127.143 88.7559V72.7479Z" fill="#E8E8EF"/>
<path d="M124.368 77.3879L116.044 82.2599L124.368 87.1319V77.3879Z" fill="#3178C6"/>
<path d="M113.385 72.168L106.043 76.576L113.385 80.81L120.784 76.518L113.385 72.168Z" fill="#E8E8EF"/>
<path d="M113.385 75.532L108.76 78.026L113.385 80.694L117.778 78.142L113.385 75.532Z" fill="#3178C6"/>
<path d="M30.0646 167L27.6016 158.273H29.3018L30.8743 164.686H30.9553L32.6342 158.273H34.1811L35.8643 164.69H35.9411L37.5135 158.273H39.2138L36.7507 167H35.1911L33.4439 160.876H33.3757L31.6243 167H30.0646ZM47.6396 162.636C47.6396 163.577 47.4634 164.382 47.1112 165.053C46.7617 165.72 46.2844 166.232 45.6793 166.587C45.0771 166.942 44.3938 167.119 43.6296 167.119C42.8654 167.119 42.1808 166.942 41.5756 166.587C40.9734 166.229 40.4961 165.716 40.1438 165.048C39.7944 164.378 39.6197 163.574 39.6197 162.636C39.6197 161.696 39.7944 160.892 40.1438 160.224C40.4961 159.554 40.9734 159.041 41.5756 158.686C42.1808 158.331 42.8654 158.153 43.6296 158.153C44.3938 158.153 45.0771 158.331 45.6793 158.686C46.2844 159.041 46.7617 159.554 47.1112 160.224C47.4634 160.892 47.6396 161.696 47.6396 162.636ZM46.0501 162.636C46.0501 161.974 45.9464 161.416 45.739 160.962C45.5344 160.504 45.2504 160.159 44.8867 159.926C44.5231 159.69 44.104 159.572 43.6296 159.572C43.1552 159.572 42.7362 159.69 42.3725 159.926C42.0089 160.159 41.7234 160.504 41.516 160.962C41.3114 161.416 41.2092 161.974 41.2092 162.636C41.2092 163.298 41.3114 163.858 41.516 164.315C41.7234 164.77 42.0089 165.115 42.3725 165.351C42.7362 165.584 43.1552 165.7 43.6296 165.7C44.104 165.7 44.5231 165.584 44.8867 165.351C45.2504 165.115 45.5344 164.77 45.739 164.315C45.9464 163.858 46.0501 163.298 46.0501 162.636ZM56.3061 158.273V167H54.8999L50.7876 161.055H50.7152V167H49.1342V158.273H50.549L54.657 164.222H54.7337V158.273H56.3061ZM59.6097 158.273V167H58.0288V158.273H59.6097ZM61.1598 167V166.016L65.6342 159.598H61.1342V158.273H67.5945V159.257L63.1243 165.675H67.62V167H61.1598ZM69.1499 167V158.273H74.826V159.598H70.7308V161.967H74.532V163.293H70.7308V165.675H74.8601V167H69.1499ZM79.8438 167.136C79.5142 167.136 79.2315 167.021 78.9957 166.791C78.7628 166.558 78.6477 166.276 78.6506 165.943C78.6477 165.619 78.7628 165.342 78.9957 165.112C79.2315 164.882 79.5142 164.767 79.8438 164.767C80.1562 164.767 80.4318 164.882 80.6705 165.112C80.9119 165.342 81.0341 165.619 81.0369 165.943C81.0341 166.165 80.9759 166.366 80.8622 166.548C80.7514 166.727 80.6065 166.871 80.4276 166.979C80.2486 167.084 80.054 167.136 79.8438 167.136ZM83.907 159.598V158.273H90.87V159.598H88.1726V167H86.6044V159.598H83.907ZM96.9553 160.672C96.9155 160.3 96.7479 160.01 96.4524 159.803C96.1598 159.595 95.7791 159.491 95.3104 159.491C94.9808 159.491 94.6982 159.541 94.4624 159.641C94.2266 159.74 94.0462 159.875 93.9212 160.045C93.7962 160.216 93.7322 160.411 93.7294 160.629C93.7294 160.811 93.7706 160.969 93.853 161.102C93.9382 161.236 94.0533 161.349 94.1982 161.443C94.343 161.534 94.5036 161.611 94.6797 161.673C94.8558 161.736 95.0334 161.788 95.2124 161.831L96.0305 162.036C96.3601 162.112 96.6768 162.216 96.9808 162.347C97.2876 162.477 97.5618 162.642 97.8033 162.841C98.0476 163.04 98.2408 163.28 98.3828 163.561C98.5249 163.842 98.5959 164.172 98.5959 164.55C98.5959 165.061 98.4652 165.511 98.2038 165.901C97.9425 166.287 97.5646 166.589 97.0703 166.808C96.5788 167.024 95.9837 167.132 95.2848 167.132C94.6058 167.132 94.0163 167.027 93.5163 166.817C93.0192 166.607 92.63 166.3 92.3487 165.896C92.0703 165.493 91.9197 165.001 91.897 164.422H93.4524C93.4751 164.726 93.5689 164.979 93.7337 165.18C93.8984 165.382 94.1129 165.533 94.3771 165.632C94.6442 165.732 94.9425 165.781 95.272 165.781C95.6158 165.781 95.9169 165.73 96.1754 165.628C96.4368 165.523 96.6413 165.378 96.7891 165.193C96.9368 165.006 97.0121 164.787 97.0149 164.537C97.0121 164.31 96.9453 164.122 96.8146 163.974C96.6839 163.824 96.5007 163.699 96.2649 163.599C96.032 163.497 95.7592 163.406 95.4467 163.327L94.4538 163.071C93.7351 162.886 93.1669 162.607 92.7493 162.232C92.3345 161.854 92.1271 161.352 92.1271 160.727C92.1271 160.213 92.2663 159.763 92.5447 159.376C92.826 158.99 93.2081 158.69 93.6911 158.477C94.174 158.261 94.7209 158.153 95.3317 158.153C95.951 158.153 96.4936 158.261 96.9595 158.477C97.4283 158.69 97.7962 158.987 98.0632 159.368C98.3303 159.746 98.468 160.18 98.4766 160.672H96.9553ZM107.475 161.217H105.882C105.836 160.956 105.752 160.724 105.63 160.523C105.508 160.318 105.356 160.145 105.174 160.003C104.993 159.861 104.785 159.754 104.552 159.683C104.322 159.609 104.074 159.572 103.806 159.572C103.332 159.572 102.912 159.692 102.545 159.93C102.179 160.166 101.892 160.513 101.684 160.97C101.477 161.425 101.373 161.98 101.373 162.636C101.373 163.304 101.477 163.866 101.684 164.324C101.895 164.778 102.181 165.122 102.545 165.355C102.912 165.585 103.331 165.7 103.802 165.7C104.064 165.7 104.308 165.666 104.535 165.598C104.765 165.527 104.971 165.423 105.153 165.287C105.338 165.151 105.493 164.983 105.618 164.784C105.745 164.585 105.833 164.358 105.882 164.102L107.475 164.111C107.416 164.526 107.287 164.915 107.088 165.278C106.892 165.642 106.635 165.963 106.316 166.241C105.998 166.517 105.626 166.733 105.2 166.889C104.774 167.043 104.301 167.119 103.781 167.119C103.014 167.119 102.329 166.942 101.727 166.587C101.125 166.232 100.65 165.719 100.304 165.048C99.957 164.378 99.7837 163.574 99.7837 162.636C99.7837 161.696 99.9585 160.892 100.308 160.224C100.657 159.554 101.133 159.041 101.735 158.686C102.338 158.331 103.02 158.153 103.781 158.153C104.267 158.153 104.718 158.222 105.136 158.358C105.554 158.494 105.926 158.695 106.252 158.959C106.579 159.22 106.848 159.541 107.058 159.922C107.271 160.3 107.41 160.732 107.475 161.217ZM116.722 162.636C116.722 163.577 116.545 164.382 116.193 165.053C115.844 165.72 115.366 166.232 114.761 166.587C114.159 166.942 113.476 167.119 112.712 167.119C111.947 167.119 111.263 166.942 110.658 166.587C110.055 166.229 109.578 165.716 109.226 165.048C108.876 164.378 108.702 163.574 108.702 162.636C108.702 161.696 108.876 160.892 109.226 160.224C109.578 159.554 110.055 159.041 110.658 158.686C111.263 158.331 111.947 158.153 112.712 158.153C113.476 158.153 114.159 158.331 114.761 158.686C115.366 159.041 115.844 159.554 116.193 160.224C116.545 160.892 116.722 161.696 116.722 162.636ZM115.132 162.636C115.132 161.974 115.028 161.416 114.821 160.962C114.616 160.504 114.332 160.159 113.969 159.926C113.605 159.69 113.186 159.572 112.712 159.572C112.237 159.572 111.818 159.69 111.455 159.926C111.091 160.159 110.805 160.504 110.598 160.962C110.393 161.416 110.291 161.974 110.291 162.636C110.291 163.298 110.393 163.858 110.598 164.315C110.805 164.77 111.091 165.115 111.455 165.351C111.818 165.584 112.237 165.7 112.712 165.7C113.186 165.7 113.605 165.584 113.969 165.351C114.332 165.115 114.616 164.77 114.821 164.315C115.028 163.858 115.132 163.298 115.132 162.636ZM125.388 158.273V167H123.982L119.87 161.055H119.797V167H118.216V158.273H119.631L123.739 164.222H123.816V158.273H125.388ZM127.111 167V158.273H132.702V159.598H128.692V161.967H132.318V163.293H128.692V167H127.111ZM135.723 158.273V167H134.142V158.273H135.723ZM143.282 161.06C143.211 160.83 143.113 160.624 142.988 160.442C142.865 160.257 142.718 160.099 142.544 159.969C142.374 159.838 142.178 159.74 141.956 159.675C141.735 159.607 141.493 159.572 141.232 159.572C140.763 159.572 140.346 159.69 139.979 159.926C139.613 160.162 139.324 160.509 139.114 160.966C138.907 161.42 138.803 161.974 138.803 162.628C138.803 163.287 138.907 163.845 139.114 164.303C139.321 164.76 139.61 165.108 139.979 165.347C140.348 165.582 140.777 165.7 141.266 165.7C141.709 165.7 142.093 165.615 142.417 165.445C142.743 165.274 142.995 165.033 143.171 164.72C143.347 164.405 143.435 164.036 143.435 163.612L143.793 163.668H141.424V162.432H144.965V163.48C144.965 164.227 144.806 164.874 144.488 165.419C144.169 165.964 143.732 166.385 143.175 166.68C142.618 166.973 141.979 167.119 141.257 167.119C140.453 167.119 139.748 166.939 139.14 166.578C138.534 166.214 138.061 165.699 137.721 165.031C137.382 164.361 137.213 163.565 137.213 162.645C137.213 161.94 137.313 161.311 137.512 160.757C137.713 160.203 137.995 159.733 138.355 159.347C138.716 158.957 139.14 158.662 139.625 158.46C140.111 158.256 140.64 158.153 141.211 158.153C141.694 158.153 142.144 158.224 142.561 158.366C142.979 158.506 143.35 158.705 143.674 158.963C144 159.222 144.269 159.528 144.479 159.884C144.689 160.239 144.827 160.631 144.892 161.06H143.282Z" fill="#3178C6"/>
</svg>
