<svg width="3617" height="1842" viewBox="0 0 3617 1842" fill="none" xmlns="http://www.w3.org/2000/svg">
<rect width="3617" height="1840.92" transform="translate(0 0.922607)" fill="#161720"/>
<path fill-rule="evenodd" clip-rule="evenodd" d="M1111.09 858.817C1116.83 878.139 1119.9 898.603 1119.9 919.785C1119.9 939.342 1117.28 958.287 1112.37 976.286L1180 1050.73L1020.3 1195.81L958.128 1127.38C941.41 1131.57 923.912 1133.8 905.893 1133.8C892.105 1133.8 878.622 1132.49 865.56 1130L793.716 1201.85L641.151 1049.28L702.845 987.586C695.733 966.28 691.882 943.482 691.882 919.785C691.882 900.533 694.424 881.875 699.191 864.127L640 798.972L799.7 653.892L852.85 712.398C869.812 708.073 887.584 705.774 905.893 705.774C922.312 705.774 938.299 707.623 953.658 711.124L1023.86 640.923L1176.42 793.488L1111.09 858.817ZM777.476 919.785C777.476 990.708 834.97 1048.2 905.893 1048.2C976.816 1048.2 1034.31 990.708 1034.31 919.785C1034.31 848.862 976.816 791.368 905.893 791.368C834.97 791.368 777.476 848.862 777.476 919.785Z" fill="#FE6B6B"/>
<path d="M1351.91 856.884C1350.43 856.884 1349.53 856.146 1349.2 854.67L1304.67 698.706C1304.18 696.738 1305 695.754 1307.13 695.754H1326.81C1328.45 695.754 1329.44 696.492 1329.77 697.968L1356.09 793.416C1357.24 797.352 1358.3 801.452 1359.29 805.716C1360.27 809.98 1361.25 814.244 1362.24 818.508C1363.22 822.608 1364.21 826.626 1365.19 830.562H1365.44C1367.08 824.822 1368.72 819.164 1370.36 813.588C1372.16 807.848 1373.96 802.19 1375.77 796.614L1395.45 731.916L1386.59 701.412C1386.26 700.592 1386.35 699.936 1386.84 699.444C1387.33 698.788 1387.99 698.46 1388.81 698.46H1408.73C1410.37 698.46 1411.36 699.28 1411.68 700.92L1438.01 798.09C1439.65 803.502 1441.12 808.914 1442.43 814.326C1443.75 819.738 1445.14 825.15 1446.62 830.562H1446.86C1447.68 826.79 1448.58 822.772 1449.57 818.508C1450.55 814.244 1451.54 809.98 1452.52 805.716C1453.5 801.452 1454.49 797.352 1455.47 793.416L1480.81 697.968C1481.14 696.492 1482.12 695.754 1483.76 695.754H1504.18C1506.31 695.754 1507.05 696.738 1506.39 698.706L1463.59 854.67C1463.26 856.146 1462.28 856.884 1460.64 856.884H1434.56C1432.92 856.884 1431.94 856.146 1431.61 854.67L1415.87 800.058C1414.23 794.482 1412.67 788.988 1411.19 783.576C1409.72 778 1408.24 772.424 1406.76 766.848H1406.27C1404.8 772.26 1403.24 777.672 1401.6 783.084C1400.12 788.496 1398.48 793.99 1396.68 799.566L1380.2 854.67C1379.87 855.49 1379.46 856.064 1378.97 856.392C1378.64 856.72 1378.06 856.884 1377.24 856.884H1351.91ZM1588.46 859.836C1567.47 859.836 1551.73 854.752 1541.23 844.584C1530.9 834.252 1525.73 819.656 1525.73 800.796V751.842C1525.73 732.818 1530.9 718.222 1541.23 708.054C1551.73 697.886 1567.47 692.802 1588.46 692.802C1609.45 692.802 1625.12 697.886 1635.45 708.054C1645.94 718.222 1651.19 732.818 1651.19 751.842V800.796C1651.19 819.656 1645.94 834.252 1635.45 844.584C1625.12 854.752 1609.45 859.836 1588.46 859.836ZM1588.46 837.942C1600.93 837.942 1610.36 834.744 1616.75 828.348C1623.15 821.788 1626.35 812.358 1626.35 800.058V752.58C1626.35 740.116 1623.15 730.686 1616.75 724.29C1610.36 717.894 1600.93 714.696 1588.46 714.696C1576.16 714.696 1566.73 717.894 1560.17 724.29C1553.78 730.686 1550.58 740.116 1550.58 752.58V800.058C1550.58 812.358 1553.78 821.788 1560.17 828.348C1566.73 834.744 1576.16 837.942 1588.46 837.942ZM1690.43 856.884C1688.62 856.884 1687.72 855.982 1687.72 854.178V698.46C1687.72 696.656 1688.62 695.754 1690.43 695.754H1721.67C1723.31 695.754 1724.37 696.41 1724.87 697.722L1768.16 785.052C1771.11 790.956 1773.74 796.368 1776.03 801.288C1778.49 806.208 1780.63 810.882 1782.43 815.31C1784.4 819.738 1786.2 824.002 1787.84 828.102H1788.33C1788.33 824.822 1788.25 821.296 1788.09 817.524C1788.09 813.752 1788.01 809.98 1787.84 806.208C1787.84 802.272 1787.84 798.5 1787.84 794.892C1787.84 791.12 1787.84 787.512 1787.84 784.068V698.46C1787.84 696.656 1788.66 695.754 1790.3 695.754H1809.49C1811.29 695.754 1812.2 696.656 1812.2 698.46V854.178C1812.2 855.982 1811.29 856.884 1809.49 856.884H1778.49C1777.02 856.884 1776.03 856.228 1775.54 854.916L1733.23 770.046C1730.61 764.798 1728.06 759.632 1725.6 754.548C1723.31 749.464 1721.01 744.462 1718.72 739.542C1716.42 734.458 1714.21 729.538 1712.07 724.782H1711.58C1711.58 728.882 1711.58 732.9 1711.58 736.836C1711.75 740.608 1711.83 744.462 1711.83 748.398C1711.99 752.17 1712.07 756.024 1712.07 759.96C1712.07 763.896 1712.07 767.914 1712.07 772.014V854.178C1712.07 855.982 1711.17 856.884 1709.37 856.884H1690.43ZM1854.03 856.884C1852.22 856.884 1851.32 855.982 1851.32 854.178V698.46C1851.32 696.656 1852.22 695.754 1854.03 695.754H1873.46C1875.26 695.754 1876.17 696.656 1876.17 698.46V854.178C1876.17 855.982 1875.26 856.884 1873.46 856.884H1854.03ZM1902.92 856.884C1901.11 856.884 1900.21 856.064 1900.21 854.424V853.686C1900.21 852.702 1900.62 851.554 1901.44 850.242L1971.3 742.002C1973.93 737.902 1976.47 733.884 1978.93 729.948C1981.55 726.012 1984.26 721.994 1987.05 717.894V717.648C1982.46 717.812 1977.78 717.894 1973.03 717.894C1968.43 717.894 1963.76 717.894 1959 717.894H1910.79C1908.98 717.894 1908.08 716.992 1908.08 715.188V698.46C1908.08 696.656 1908.98 695.754 1910.79 695.754H2023.21C2025.01 695.754 2025.92 696.574 2025.92 698.214V698.952C2025.92 699.608 2025.83 700.264 2025.67 700.92C2025.51 701.412 2025.26 701.904 2024.93 702.396L1955.81 808.176C1952.85 812.768 1949.98 817.278 1947.2 821.706C1944.41 825.97 1941.46 830.316 1938.34 834.744V834.99C1943.59 834.826 1948.84 834.744 1954.08 834.744C1959.33 834.744 1964.58 834.744 1969.83 834.744H2017.55C2019.36 834.744 2020.26 835.646 2020.26 837.45V854.178C2020.26 855.982 2019.36 856.884 2017.55 856.884H1902.92ZM2053.42 856.884C2051.62 856.884 2050.71 855.982 2050.71 854.178V698.46C2050.71 696.656 2051.62 695.754 2053.42 695.754H2143.95C2145.59 695.754 2146.41 696.656 2146.41 698.46V715.188C2146.41 716.992 2145.59 717.894 2143.95 717.894H2075.56V764.634H2138.04C2139.68 764.634 2140.5 765.454 2140.5 767.094V783.084C2140.5 784.888 2139.68 785.79 2138.04 785.79H2075.56V834.744H2143.95C2145.59 834.744 2146.41 835.646 2146.41 837.45V854.178C2146.41 855.982 2145.59 856.884 2143.95 856.884H2053.42ZM2289.13 859.836C2276.99 859.836 2266.58 857.54 2257.89 852.948C2249.19 848.356 2242.47 841.632 2237.71 832.776C2232.96 823.92 2230.58 813.26 2230.58 800.796V751.842C2230.58 733.146 2236.16 718.632 2247.31 708.3C2258.62 697.968 2274.12 692.802 2293.8 692.802C2307.41 692.802 2319.06 695.016 2328.73 699.444C2338.41 703.872 2345.54 710.104 2350.14 718.14C2354.89 726.176 2356.45 735.524 2354.81 746.184C2354.65 747.988 2353.74 748.89 2352.1 748.89L2332.42 748.644C2330.62 748.644 2329.8 747.742 2329.96 745.938C2330.46 739.214 2329.39 733.556 2326.77 728.964C2324.14 724.208 2320.12 720.6 2314.71 718.14C2309.46 715.68 2302.66 714.45 2294.29 714.45C2281.5 714.45 2271.83 717.566 2265.27 723.798C2258.71 730.03 2255.43 739.46 2255.43 752.088V800.55C2255.43 813.178 2258.54 822.608 2264.77 828.84C2271.17 835.072 2280.68 838.188 2293.31 838.188C2305.94 838.188 2315.53 835.154 2322.09 829.086C2328.82 822.854 2332.18 813.998 2332.18 802.518V793.662H2296.02C2294.21 793.662 2293.31 792.842 2293.31 791.202V776.442C2293.31 774.638 2294.21 773.736 2296.02 773.736H2352.84C2353.66 773.736 2354.32 773.982 2354.81 774.474C2355.3 774.966 2355.55 775.622 2355.55 776.442V823.428C2355.55 828.676 2355.63 833.924 2355.79 839.172C2356.12 844.256 2356.61 849.176 2357.27 853.932C2357.6 854.916 2357.52 855.654 2357.02 856.146C2356.53 856.638 2355.88 856.884 2355.06 856.884H2339.07C2338.41 856.884 2337.84 856.72 2337.34 856.392C2336.85 856.064 2336.52 855.49 2336.36 854.67C2335.87 852.538 2335.46 850.16 2335.13 847.536C2334.97 844.912 2334.8 842.124 2334.64 839.172H2334.39C2331.44 843.764 2327.67 847.618 2323.08 850.734C2318.65 853.686 2313.56 855.9 2307.82 857.376C2302.08 859.016 2295.85 859.836 2289.13 859.836ZM2397.68 856.884C2395.87 856.884 2394.97 855.982 2394.97 854.178V698.46C2394.97 696.656 2395.87 695.754 2397.68 695.754H2446.88C2467.21 695.754 2482.14 699.608 2491.65 707.316C2501.16 715.024 2505.92 726.422 2505.92 741.51C2505.92 753.154 2503.21 762.912 2497.8 770.784C2492.39 778.492 2484.51 783.822 2474.18 786.774V787.02L2514.77 853.686C2515.26 854.506 2515.35 855.244 2515.02 855.9C2514.69 856.556 2513.95 856.884 2512.8 856.884H2490.17C2488.7 856.884 2487.63 856.31 2486.97 855.162L2448.11 790.218H2419.82V854.178C2419.82 855.982 2418.91 856.884 2417.11 856.884H2397.68ZM2419.82 770.538H2445.15C2457.78 770.538 2466.88 768.324 2472.46 763.896C2478.2 759.468 2481.07 752.416 2481.07 742.74C2481.07 733.392 2478.45 726.75 2473.2 722.814C2467.95 718.878 2459.09 716.91 2446.63 716.91H2419.82V770.538ZM2602.01 859.836C2581.02 859.836 2565.28 854.752 2554.78 844.584C2544.45 834.252 2539.28 819.656 2539.28 800.796V751.842C2539.28 732.818 2544.45 718.222 2554.78 708.054C2565.28 697.886 2581.02 692.802 2602.01 692.802C2623 692.802 2638.67 697.886 2649 708.054C2659.49 718.222 2664.74 732.818 2664.74 751.842V800.796C2664.74 819.656 2659.49 834.252 2649 844.584C2638.67 854.752 2623 859.836 2602.01 859.836ZM2602.01 837.942C2614.48 837.942 2623.91 834.744 2630.3 828.348C2636.7 821.788 2639.9 812.358 2639.9 800.058V752.58C2639.9 740.116 2636.7 730.686 2630.3 724.29C2623.91 717.894 2614.48 714.696 2602.01 714.696C2589.71 714.696 2580.28 717.894 2573.72 724.29C2567.33 730.686 2564.13 740.116 2564.13 752.58V800.058C2564.13 812.358 2567.33 821.788 2573.72 828.348C2580.28 834.744 2589.71 837.942 2602.01 837.942ZM2761.29 859.836C2741.61 859.836 2726.44 854.834 2715.78 844.83C2705.29 834.662 2700.04 819.902 2700.04 800.55V698.46C2700.04 696.656 2700.94 695.754 2702.74 695.754H2722.18C2723 695.754 2723.65 696 2724.15 696.492C2724.64 696.82 2724.88 697.476 2724.88 698.46V800.55C2724.88 812.522 2727.92 821.788 2733.99 828.348C2740.22 834.908 2749.32 838.188 2761.29 838.188C2773.26 838.188 2782.28 834.908 2788.35 828.348C2794.58 821.788 2797.7 812.522 2797.7 800.55V698.46C2797.7 696.656 2798.52 695.754 2800.16 695.754H2819.84C2821.64 695.754 2822.55 696.656 2822.55 698.46V800.796C2822.55 819.492 2817.13 834.006 2806.31 844.338C2795.49 854.67 2780.48 859.836 2761.29 859.836ZM2863.25 856.884C2861.45 856.884 2860.54 855.982 2860.54 854.178V698.46C2860.54 696.656 2861.45 695.754 2863.25 695.754H2906.3C2926.8 695.754 2942.05 700.1 2952.06 708.792C2962.22 717.484 2967.31 730.194 2967.31 746.922C2967.31 763.65 2962.14 776.36 2951.81 785.052C2941.64 793.744 2926.47 798.09 2906.3 798.09H2885.39V854.178C2885.39 855.982 2884.49 856.884 2882.68 856.884H2863.25ZM2885.39 777.18H2905.81C2918.44 777.18 2927.7 774.802 2933.61 770.046C2939.51 765.29 2942.46 757.828 2942.46 747.66C2942.46 736.836 2939.43 729.046 2933.36 724.29C2927.46 719.37 2918.19 716.91 2905.56 716.91H2885.39V777.18Z" fill="#A5A6A9"/>
<path d="M1318.91 1153.88C1316.49 1153.88 1315.28 1152.68 1315.28 1150.26V987.865C1315.28 985.447 1316.49 984.239 1318.91 984.239H1426.65C1428.9 984.239 1430.02 985.447 1430.02 987.865V1017.65C1430.02 1020.07 1428.9 1021.28 1426.65 1021.28H1358.02V1053.39H1416.81C1419.05 1053.39 1420.18 1054.6 1420.18 1057.02V1086.03C1420.18 1088.27 1419.05 1089.39 1416.81 1089.39H1358.02V1150.26C1358.02 1152.68 1356.89 1153.88 1354.65 1153.88H1318.91ZM1519.53 1156.99C1495.36 1156.99 1477.05 1151.29 1464.62 1139.9C1452.19 1128.5 1445.97 1111.67 1445.97 1089.39V1048.73C1445.97 1026.28 1452.19 1009.45 1464.62 998.225C1477.05 986.829 1495.36 981.131 1519.53 981.131C1543.7 981.131 1562.01 986.829 1574.44 998.225C1587.04 1009.45 1593.34 1026.28 1593.34 1048.73V1089.39C1593.34 1111.67 1587.04 1128.5 1574.44 1139.9C1562.01 1151.29 1543.7 1156.99 1519.53 1156.99ZM1519.53 1119.7C1530.06 1119.7 1537.83 1116.85 1542.84 1111.15C1548.02 1105.45 1550.61 1097.25 1550.61 1086.54V1051.58C1550.61 1040.87 1548.02 1032.67 1542.84 1026.97C1537.83 1021.28 1530.06 1018.43 1519.53 1018.43C1509.17 1018.43 1501.4 1021.28 1496.22 1026.97C1491.21 1032.67 1488.71 1040.87 1488.71 1051.58V1086.54C1488.71 1097.25 1491.21 1105.45 1496.22 1111.15C1501.4 1116.85 1509.17 1119.7 1519.53 1119.7ZM1691.27 1156.99C1667.61 1156.99 1649.74 1151.55 1637.66 1140.67C1625.57 1129.8 1619.53 1112.88 1619.53 1089.91V987.865C1619.53 985.447 1620.73 984.239 1623.15 984.239H1658.89C1659.76 984.239 1660.53 984.584 1661.23 985.275C1661.92 985.793 1662.26 986.656 1662.26 987.865V1087.84C1662.26 1098.03 1664.42 1105.97 1668.74 1111.67C1673.23 1117.36 1680.74 1120.21 1691.27 1120.21C1701.63 1120.21 1708.97 1117.36 1713.28 1111.67C1717.77 1105.97 1720.02 1098.03 1720.02 1087.84V987.865C1720.02 985.447 1721.23 984.239 1723.64 984.239H1759.13C1761.54 984.239 1762.75 985.447 1762.75 987.865V1089.91C1762.75 1112.7 1756.71 1129.62 1744.62 1140.67C1732.54 1151.55 1714.75 1156.99 1691.27 1156.99ZM1795.68 1153.88C1793.26 1153.88 1792.05 1152.68 1792.05 1150.26V987.865C1792.05 985.447 1793.26 984.239 1795.68 984.239H1841.01C1842.9 984.239 1844.29 985.102 1845.15 986.829L1877.78 1051.84C1880.2 1056.67 1882.7 1061.85 1885.29 1067.38C1887.88 1072.9 1890.22 1078.34 1892.29 1083.69C1894.53 1089.05 1896.35 1093.8 1897.73 1097.94H1898.5C1898.16 1094.66 1897.81 1090.95 1897.47 1086.8C1897.29 1082.66 1897.04 1078.43 1896.69 1074.11C1896.52 1069.8 1896.35 1065.56 1896.17 1061.42C1896.17 1057.28 1896.17 1053.56 1896.17 1050.28V987.865C1896.17 985.447 1897.29 984.239 1899.54 984.239H1933.73C1936.14 984.239 1937.35 985.447 1937.35 987.865V1150.26C1937.35 1152.68 1936.14 1153.88 1933.73 1153.88H1888.4C1886.68 1153.88 1885.29 1153.02 1884.26 1151.29L1853.18 1089.39C1850.76 1084.73 1848.34 1079.55 1845.93 1073.85C1843.68 1068.15 1841.44 1062.54 1839.19 1057.02C1836.95 1051.32 1834.88 1046.31 1832.98 1042H1832.2C1832.37 1045.62 1832.54 1049.51 1832.72 1053.65C1832.89 1057.79 1832.98 1062.11 1832.98 1066.6C1833.15 1070.92 1833.24 1075.15 1833.24 1079.29C1833.24 1083.44 1833.24 1087.41 1833.24 1091.21V1150.26C1833.24 1152.68 1832.03 1153.88 1829.61 1153.88H1795.68ZM1971.47 1153.88C1969.05 1153.88 1967.84 1152.68 1967.84 1150.26V987.865C1967.84 985.447 1969.05 984.239 1971.47 984.239H2032.33C2059.61 984.239 2079.81 990.541 2092.94 1003.15C2106.06 1015.58 2112.62 1034.05 2112.62 1058.57V1077.48C2112.62 1102.69 2106.06 1121.77 2092.94 1134.72C2079.81 1147.5 2059.61 1153.88 2032.33 1153.88H1971.47ZM2010.58 1117.36H2029.48C2043.47 1117.36 2053.66 1113.83 2060.04 1106.75C2066.61 1099.49 2069.89 1089.22 2069.89 1075.92V1060.13C2069.89 1047.52 2066.61 1037.85 2060.04 1031.12C2053.66 1024.21 2043.47 1020.76 2029.48 1020.76H2010.58V1117.36ZM2119.04 1153.88C2116.27 1153.88 2115.32 1152.5 2116.19 1149.74L2170.06 987.088C2170.75 985.188 2172.13 984.239 2174.2 984.239H2220.3C2222.38 984.239 2223.76 985.188 2224.45 987.088L2278.58 1149.74C2278.93 1150.95 2278.84 1151.98 2278.32 1152.85C2277.98 1153.54 2277.11 1153.88 2275.73 1153.88H2236.88C2234.64 1153.88 2233.25 1152.93 2232.74 1151.03L2206.58 1057.28C2204.85 1051.06 2203.21 1044.84 2201.66 1038.63C2200.1 1032.41 2198.64 1026.28 2197.25 1020.24H2196.74C2195.35 1026.46 2193.89 1032.67 2192.33 1038.89C2190.78 1045.1 2189.14 1051.32 2187.41 1057.54L2161.77 1150.78C2161.25 1152.85 2159.87 1153.88 2157.63 1153.88H2119.04ZM2163.07 1123.58L2169.8 1090.17H2223.41L2230.41 1123.58H2163.07ZM2316.79 1153.88C2314.54 1153.88 2313.42 1152.68 2313.42 1150.26V1021.28H2270.95C2268.53 1021.28 2267.32 1020.07 2267.32 1017.65V987.865C2267.32 985.447 2268.53 984.239 2270.95 984.239H2398.37C2400.62 984.239 2401.74 985.447 2401.74 987.865V1017.65C2401.74 1020.07 2400.62 1021.28 2398.37 1021.28H2355.9V1150.26C2355.9 1152.68 2354.69 1153.88 2352.27 1153.88H2316.79ZM2425.48 1153.88C2423.06 1153.88 2421.85 1152.68 2421.85 1150.26V987.865C2421.85 985.447 2423.06 984.239 2425.48 984.239H2460.96C2463.38 984.239 2464.58 985.447 2464.58 987.865V1150.26C2464.58 1152.68 2463.38 1153.88 2460.96 1153.88H2425.48ZM2565.65 1156.99C2541.47 1156.99 2523.17 1151.29 2510.74 1139.9C2498.31 1128.5 2492.09 1111.67 2492.09 1089.39V1048.73C2492.09 1026.28 2498.31 1009.45 2510.74 998.225C2523.17 986.829 2541.47 981.131 2565.65 981.131C2589.82 981.131 2608.12 986.829 2620.55 998.225C2633.16 1009.45 2639.46 1026.28 2639.46 1048.73V1089.39C2639.46 1111.67 2633.16 1128.5 2620.55 1139.9C2608.12 1151.29 2589.82 1156.99 2565.65 1156.99ZM2565.65 1119.7C2576.18 1119.7 2583.95 1116.85 2588.96 1111.15C2594.14 1105.45 2596.73 1097.25 2596.73 1086.54V1051.58C2596.73 1040.87 2594.14 1032.67 2588.96 1026.97C2583.95 1021.28 2576.18 1018.43 2565.65 1018.43C2555.29 1018.43 2547.52 1021.28 2542.34 1026.97C2537.33 1032.67 2534.83 1040.87 2534.83 1051.58V1086.54C2534.83 1097.25 2537.33 1105.45 2542.34 1111.15C2547.52 1116.85 2555.29 1119.7 2565.65 1119.7ZM2670.56 1153.88C2668.15 1153.88 2666.94 1152.68 2666.94 1150.26V987.865C2666.94 985.447 2668.15 984.239 2670.56 984.239H2715.89C2717.79 984.239 2719.17 985.102 2720.03 986.829L2752.67 1051.84C2755.08 1056.67 2757.59 1061.85 2760.18 1067.38C2762.77 1072.9 2765.1 1078.34 2767.17 1083.69C2769.42 1089.05 2771.23 1093.8 2772.61 1097.94H2773.39C2773.04 1094.66 2772.7 1090.95 2772.35 1086.8C2772.18 1082.66 2771.92 1078.43 2771.57 1074.11C2771.4 1069.8 2771.23 1065.56 2771.06 1061.42C2771.06 1057.28 2771.06 1053.56 2771.06 1050.28V987.865C2771.06 985.447 2772.18 984.239 2774.42 984.239H2808.61C2811.03 984.239 2812.24 985.447 2812.24 987.865V1150.26C2812.24 1152.68 2811.03 1153.88 2808.61 1153.88H2763.29C2761.56 1153.88 2760.18 1153.02 2759.14 1151.29L2728.06 1089.39C2725.64 1084.73 2723.23 1079.55 2720.81 1073.85C2718.57 1068.15 2716.32 1062.54 2714.08 1057.02C2711.83 1051.32 2709.76 1046.31 2707.86 1042H2707.08C2707.26 1045.62 2707.43 1049.51 2707.6 1053.65C2707.77 1057.79 2707.86 1062.11 2707.86 1066.6C2708.03 1070.92 2708.12 1075.15 2708.12 1079.29C2708.12 1083.44 2708.12 1087.41 2708.12 1091.21V1150.26C2708.12 1152.68 2706.91 1153.88 2704.49 1153.88H2670.56ZM2899.96 1156.99C2884.42 1156.99 2871.65 1155.09 2861.63 1151.29C2851.79 1147.32 2844.71 1141.37 2840.39 1133.42C2836.25 1125.48 2834.7 1115.55 2835.73 1103.64C2836.08 1101.05 2837.37 1099.75 2839.62 1099.75H2874.32C2876.74 1099.75 2877.86 1100.88 2877.69 1103.12C2877.52 1108.82 2879.33 1113.22 2883.13 1116.33C2887.1 1119.26 2893.14 1120.73 2901.26 1120.73C2909.37 1120.73 2915.24 1119.7 2918.87 1117.62C2922.67 1115.55 2924.57 1112.27 2924.57 1107.78C2924.57 1105.88 2924.14 1104.16 2923.27 1102.6C2922.41 1100.88 2920.86 1099.32 2918.61 1097.94C2916.37 1096.39 2913.26 1094.83 2909.29 1093.28L2872.25 1076.96C2863.27 1072.99 2856.28 1068.76 2851.27 1064.27C2846.26 1059.61 2842.72 1054.43 2840.65 1048.73C2838.58 1042.86 2837.54 1036.13 2837.54 1028.53C2837.72 1013.51 2842.9 1001.85 2853.08 993.563C2863.27 985.275 2878.55 981.131 2898.93 981.131C2914.12 981.131 2926.73 983.116 2936.74 987.088C2946.76 990.886 2954.01 996.584 2958.5 1004.18C2963.16 1011.61 2964.89 1021.19 2963.68 1032.93C2963.5 1035.87 2962.3 1037.33 2960.05 1037.33H2925.35C2924.14 1037.33 2923.19 1036.99 2922.5 1036.3C2921.98 1035.43 2921.81 1034.31 2921.98 1032.93C2922.32 1028.27 2920.51 1024.38 2916.54 1021.28C2912.74 1018.17 2907.22 1016.61 2899.96 1016.61C2893.4 1016.61 2888.48 1017.74 2885.2 1019.98C2881.92 1022.05 2880.28 1025.16 2880.28 1029.3C2880.28 1031.38 2880.8 1033.28 2881.83 1035C2882.87 1036.56 2884.51 1038.11 2886.75 1039.66C2889 1041.05 2892.02 1042.6 2895.82 1044.33L2932.6 1060.13C2941.4 1063.92 2948.4 1068.07 2953.58 1072.56C2958.76 1077.05 2962.38 1082.31 2964.45 1088.36C2966.53 1094.23 2967.48 1101.05 2967.3 1108.82C2967.13 1124.7 2961.78 1136.7 2951.25 1144.82C2940.71 1152.93 2923.62 1156.99 2899.96 1156.99Z" fill="#FE6B6B"/>
</svg>
