<svg width="3617" height="1841" viewBox="0 0 3617 1841" fill="none" xmlns="http://www.w3.org/2000/svg">
<rect width="3617" height="1841" transform="translate(-0.00195312)" fill="#161720"/>
<path fill-rule="evenodd" clip-rule="evenodd" d="M1111.09 727.894C1116.83 747.216 1119.9 767.68 1119.9 788.863C1119.9 808.42 1117.28 827.364 1112.37 845.363L1180 919.812L1020.3 1064.89L958.126 996.454C941.408 1000.65 923.91 1002.87 905.891 1002.87C892.103 1002.87 878.62 1001.57 865.558 999.079L793.714 1070.92L641.149 918.357L702.843 856.664C695.731 835.357 691.88 812.56 691.88 788.863C691.88 769.61 694.422 750.952 699.189 733.205L639.998 668.049L799.698 522.969L852.848 581.476C869.81 577.15 887.582 574.851 905.891 574.851C922.31 574.851 938.297 576.7 953.656 580.201L1023.86 510L1176.42 662.565L1111.09 727.894ZM777.474 788.863C777.474 859.785 834.969 917.279 905.891 917.279C976.814 917.279 1034.31 859.785 1034.31 788.863C1034.31 717.94 976.814 660.446 905.891 660.446C834.969 660.446 777.474 717.94 777.474 788.863Z" fill="#FE6B6B"/>
<path d="M1351.91 698C1350.43 698 1349.53 697.262 1349.2 695.786L1304.67 539.822C1304.18 537.854 1305 536.87 1307.13 536.87H1326.81C1328.45 536.87 1329.44 537.608 1329.77 539.084L1356.09 634.532C1357.24 638.468 1358.3 642.568 1359.29 646.832C1360.27 651.096 1361.25 655.36 1362.24 659.624C1363.22 663.724 1364.21 667.742 1365.19 671.678H1365.44C1367.08 665.938 1368.72 660.28 1370.36 654.704C1372.16 648.964 1373.96 643.306 1375.77 637.73L1395.45 573.032L1386.59 542.528C1386.26 541.708 1386.35 541.052 1386.84 540.56C1387.33 539.904 1387.99 539.576 1388.81 539.576H1408.73C1410.37 539.576 1411.36 540.396 1411.68 542.036L1438.01 639.206C1439.65 644.618 1441.12 650.03 1442.43 655.442C1443.75 660.854 1445.14 666.266 1446.62 671.678H1446.86C1447.68 667.906 1448.58 663.888 1449.57 659.624C1450.55 655.36 1451.54 651.096 1452.52 646.832C1453.5 642.568 1454.49 638.468 1455.47 634.532L1480.81 539.084C1481.14 537.608 1482.12 536.87 1483.76 536.87H1504.18C1506.31 536.87 1507.05 537.854 1506.39 539.822L1463.59 695.786C1463.26 697.262 1462.28 698 1460.64 698H1434.56C1432.92 698 1431.94 697.262 1431.61 695.786L1415.87 641.174C1414.23 635.598 1412.67 630.104 1411.19 624.692C1409.72 619.116 1408.24 613.54 1406.76 607.964H1406.27C1404.8 613.376 1403.24 618.788 1401.6 624.2C1400.12 629.612 1398.48 635.106 1396.68 640.682L1380.2 695.786C1379.87 696.606 1379.46 697.18 1378.97 697.508C1378.64 697.836 1378.06 698 1377.24 698H1351.91ZM1588.46 700.952C1567.47 700.952 1551.72 695.868 1541.23 685.7C1530.9 675.368 1525.73 660.772 1525.73 641.912V592.958C1525.73 573.934 1530.9 559.338 1541.23 549.17C1551.72 539.002 1567.47 533.918 1588.46 533.918C1609.45 533.918 1625.11 539.002 1635.45 549.17C1645.94 559.338 1651.19 573.934 1651.19 592.958V641.912C1651.19 660.772 1645.94 675.368 1635.45 685.7C1625.11 695.868 1609.45 700.952 1588.46 700.952ZM1588.46 679.058C1600.92 679.058 1610.35 675.86 1616.75 669.464C1623.15 662.904 1626.34 653.474 1626.34 641.174V593.696C1626.34 581.232 1623.15 571.802 1616.75 565.406C1610.35 559.01 1600.92 555.812 1588.46 555.812C1576.16 555.812 1566.73 559.01 1560.17 565.406C1553.77 571.802 1550.58 581.232 1550.58 593.696V641.174C1550.58 653.474 1553.77 662.904 1560.17 669.464C1566.73 675.86 1576.16 679.058 1588.46 679.058ZM1690.42 698C1688.62 698 1687.72 697.098 1687.72 695.294V539.576C1687.72 537.772 1688.62 536.87 1690.42 536.87H1721.67C1723.31 536.87 1724.37 537.526 1724.86 538.838L1768.16 626.168C1771.11 632.072 1773.74 637.484 1776.03 642.404C1778.49 647.324 1780.62 651.998 1782.43 656.426C1784.4 660.854 1786.2 665.118 1787.84 669.218H1788.33C1788.33 665.938 1788.25 662.412 1788.09 658.64C1788.09 654.868 1788 651.096 1787.84 647.324C1787.84 643.388 1787.84 639.616 1787.84 636.008C1787.84 632.236 1787.84 628.628 1787.84 625.184V539.576C1787.84 537.772 1788.66 536.87 1790.3 536.87H1809.49C1811.29 536.87 1812.19 537.772 1812.19 539.576V695.294C1812.19 697.098 1811.29 698 1809.49 698H1778.49C1777.02 698 1776.03 697.344 1775.54 696.032L1733.23 611.162C1730.6 605.914 1728.06 600.748 1725.6 595.664C1723.31 590.58 1721.01 585.578 1718.71 580.658C1716.42 575.574 1714.2 570.654 1712.07 565.898H1711.58C1711.58 569.998 1711.58 574.016 1711.58 577.952C1711.74 581.724 1711.83 585.578 1711.83 589.514C1711.99 593.286 1712.07 597.14 1712.07 601.076C1712.07 605.012 1712.07 609.03 1712.07 613.13V695.294C1712.07 697.098 1711.17 698 1709.37 698H1690.42ZM1854.02 698C1852.22 698 1851.32 697.098 1851.32 695.294V539.576C1851.32 537.772 1852.22 536.87 1854.02 536.87H1873.46C1875.26 536.87 1876.16 537.772 1876.16 539.576V695.294C1876.16 697.098 1875.26 698 1873.46 698H1854.02ZM1902.91 698C1901.11 698 1900.21 697.18 1900.21 695.54V694.802C1900.21 693.818 1900.62 692.67 1901.44 691.358L1971.3 583.118C1973.93 579.018 1976.47 575 1978.93 571.064C1981.55 567.128 1984.26 563.11 1987.05 559.01V558.764C1982.45 558.928 1977.78 559.01 1973.02 559.01C1968.43 559.01 1963.76 559.01 1959 559.01H1910.79C1908.98 559.01 1908.08 558.108 1908.08 556.304V539.576C1908.08 537.772 1908.98 536.87 1910.79 536.87H2023.21C2025.01 536.87 2025.91 537.69 2025.91 539.33V540.068C2025.91 540.724 2025.83 541.38 2025.67 542.036C2025.5 542.528 2025.26 543.02 2024.93 543.512L1955.8 649.292C1952.85 653.884 1949.98 658.394 1947.19 662.822C1944.41 667.086 1941.45 671.432 1938.34 675.86V676.106C1943.59 675.942 1948.83 675.86 1954.08 675.86C1959.33 675.86 1964.58 675.86 1969.83 675.86H2017.55C2019.35 675.86 2020.26 676.762 2020.26 678.566V695.294C2020.26 697.098 2019.35 698 2017.55 698H1902.91ZM2053.42 698C2051.61 698 2050.71 697.098 2050.71 695.294V539.576C2050.71 537.772 2051.61 536.87 2053.42 536.87H2143.95C2145.59 536.87 2146.41 537.772 2146.41 539.576V556.304C2146.41 558.108 2145.59 559.01 2143.95 559.01H2075.56V605.75H2138.04C2139.68 605.75 2140.5 606.57 2140.5 608.21V624.2C2140.5 626.004 2139.68 626.906 2138.04 626.906H2075.56V675.86H2143.95C2145.59 675.86 2146.41 676.762 2146.41 678.566V695.294C2146.41 697.098 2145.59 698 2143.95 698H2053.42ZM2289.13 700.952C2276.99 700.952 2266.58 698.656 2257.88 694.064C2249.19 689.472 2242.47 682.748 2237.71 673.892C2232.96 665.036 2230.58 654.376 2230.58 641.912V592.958C2230.58 574.262 2236.15 559.748 2247.31 549.416C2258.62 539.084 2274.12 533.918 2293.8 533.918C2307.41 533.918 2319.06 536.132 2328.73 540.56C2338.41 544.988 2345.54 551.22 2350.13 559.256C2354.89 567.292 2356.45 576.64 2354.81 587.3C2354.64 589.104 2353.74 590.006 2352.1 590.006L2332.42 589.76C2330.62 589.76 2329.8 588.858 2329.96 587.054C2330.45 580.33 2329.39 574.672 2326.76 570.08C2324.14 565.324 2320.12 561.716 2314.71 559.256C2309.46 556.796 2302.66 555.566 2294.29 555.566C2281.5 555.566 2271.82 558.682 2265.26 564.914C2258.7 571.146 2255.42 580.576 2255.42 593.204V641.666C2255.42 654.294 2258.54 663.724 2264.77 669.956C2271.17 676.188 2280.68 679.304 2293.31 679.304C2305.94 679.304 2315.53 676.27 2322.09 670.202C2328.81 663.97 2332.18 655.114 2332.18 643.634V634.778H2296.01C2294.21 634.778 2293.31 633.958 2293.31 632.318V617.558C2293.31 615.754 2294.21 614.852 2296.01 614.852H2352.84C2353.66 614.852 2354.32 615.098 2354.81 615.59C2355.3 616.082 2355.55 616.738 2355.55 617.558V664.544C2355.55 669.792 2355.63 675.04 2355.79 680.288C2356.12 685.372 2356.61 690.292 2357.27 695.048C2357.6 696.032 2357.51 696.77 2357.02 697.262C2356.53 697.754 2355.87 698 2355.05 698H2339.06C2338.41 698 2337.83 697.836 2337.34 697.508C2336.85 697.18 2336.52 696.606 2336.36 695.786C2335.87 693.654 2335.46 691.276 2335.13 688.652C2334.96 686.028 2334.8 683.24 2334.64 680.288H2334.39C2331.44 684.88 2327.67 688.734 2323.07 691.85C2318.65 694.802 2313.56 697.016 2307.82 698.492C2302.08 700.132 2295.85 700.952 2289.13 700.952ZM2397.67 698C2395.87 698 2394.97 697.098 2394.97 695.294V539.576C2394.97 537.772 2395.87 536.87 2397.67 536.87H2446.87C2467.21 536.87 2482.13 540.724 2491.65 548.432C2501.16 556.14 2505.91 567.538 2505.91 582.626C2505.91 594.27 2503.21 604.028 2497.8 611.9C2492.38 619.608 2484.51 624.938 2474.18 627.89V628.136L2514.77 694.802C2515.26 695.622 2515.34 696.36 2515.02 697.016C2514.69 697.672 2513.95 698 2512.8 698H2490.17C2488.69 698 2487.63 697.426 2486.97 696.278L2448.1 631.334H2419.81V695.294C2419.81 697.098 2418.91 698 2417.11 698H2397.67ZM2419.81 611.654H2445.15C2457.78 611.654 2466.88 609.44 2472.46 605.012C2478.2 600.584 2481.07 593.532 2481.07 583.856C2481.07 574.508 2478.44 567.866 2473.2 563.93C2467.95 559.994 2459.09 558.026 2446.63 558.026H2419.81V611.654ZM2602.01 700.952C2581.02 700.952 2565.27 695.868 2554.78 685.7C2544.45 675.368 2539.28 660.772 2539.28 641.912V592.958C2539.28 573.934 2544.45 559.338 2554.78 549.17C2565.27 539.002 2581.02 533.918 2602.01 533.918C2623 533.918 2638.66 539.002 2649 549.17C2659.49 559.338 2664.74 573.934 2664.74 592.958V641.912C2664.74 660.772 2659.49 675.368 2649 685.7C2638.66 695.868 2623 700.952 2602.01 700.952ZM2602.01 679.058C2614.47 679.058 2623.9 675.86 2630.3 669.464C2636.7 662.904 2639.89 653.474 2639.89 641.174V593.696C2639.89 581.232 2636.7 571.802 2630.3 565.406C2623.9 559.01 2614.47 555.812 2602.01 555.812C2589.71 555.812 2580.28 559.01 2573.72 565.406C2567.32 571.802 2564.13 581.232 2564.13 593.696V641.174C2564.13 653.474 2567.32 662.904 2573.72 669.464C2580.28 675.86 2589.71 679.058 2602.01 679.058ZM2761.29 700.952C2741.61 700.952 2726.44 695.95 2715.78 685.946C2705.28 675.778 2700.04 661.018 2700.04 641.666V539.576C2700.04 537.772 2700.94 536.87 2702.74 536.87H2722.18C2723 536.87 2723.65 537.116 2724.14 537.608C2724.64 537.936 2724.88 538.592 2724.88 539.576V641.666C2724.88 653.638 2727.92 662.904 2733.98 669.464C2740.22 676.024 2749.32 679.304 2761.29 679.304C2773.26 679.304 2782.28 676.024 2788.35 669.464C2794.58 662.904 2797.7 653.638 2797.7 641.666V539.576C2797.7 537.772 2798.52 536.87 2800.16 536.87H2819.84C2821.64 536.87 2822.54 537.772 2822.54 539.576V641.912C2822.54 660.608 2817.13 675.122 2806.31 685.454C2795.48 695.786 2780.48 700.952 2761.29 700.952ZM2863.25 698C2861.44 698 2860.54 697.098 2860.54 695.294V539.576C2860.54 537.772 2861.44 536.87 2863.25 536.87H2906.3C2926.8 536.87 2942.05 541.216 2952.05 549.908C2962.22 558.6 2967.31 571.31 2967.31 588.038C2967.31 604.766 2962.14 617.476 2951.81 626.168C2941.64 634.86 2926.47 639.206 2906.3 639.206H2885.39V695.294C2885.39 697.098 2884.49 698 2882.68 698H2863.25ZM2885.39 618.296H2905.81C2918.43 618.296 2927.7 615.918 2933.6 611.162C2939.51 606.406 2942.46 598.944 2942.46 588.776C2942.46 577.952 2939.43 570.162 2933.36 565.406C2927.45 560.486 2918.19 558.026 2905.56 558.026H2885.39V618.296Z" fill="#A5A6A9"/>
<path d="M1318.91 995C1316.49 995 1315.28 993.791 1315.28 991.374V828.981C1315.28 826.564 1316.49 825.355 1318.91 825.355H1426.65C1428.89 825.355 1430.02 826.564 1430.02 828.981V858.766C1430.02 861.183 1428.89 862.392 1426.65 862.392H1358.02V894.508H1416.81C1419.05 894.508 1420.18 895.717 1420.18 898.134V927.142C1420.18 929.387 1419.05 930.509 1416.81 930.509H1358.02V991.374C1358.02 993.791 1356.89 995 1354.65 995H1318.91ZM1519.53 998.108C1495.35 998.108 1477.05 992.41 1464.62 981.014C1452.19 969.618 1445.97 952.783 1445.97 930.509V889.846C1445.97 867.399 1452.19 850.564 1464.62 839.341C1477.05 827.945 1495.35 822.247 1519.53 822.247C1543.7 822.247 1562 827.945 1574.44 839.341C1587.04 850.564 1593.34 867.399 1593.34 889.846V930.509C1593.34 952.783 1587.04 969.618 1574.44 981.014C1562 992.41 1543.7 998.108 1519.53 998.108ZM1519.53 960.812C1530.06 960.812 1537.83 957.963 1542.84 952.265C1548.02 946.567 1550.61 938.365 1550.61 927.66V892.695C1550.61 881.99 1548.02 873.788 1542.84 868.09C1537.83 862.392 1530.06 859.543 1519.53 859.543C1509.17 859.543 1501.4 862.392 1496.22 868.09C1491.21 873.788 1488.71 881.99 1488.71 892.695V927.66C1488.71 938.365 1491.21 946.567 1496.22 952.265C1501.4 957.963 1509.17 960.812 1519.53 960.812ZM1691.27 998.108C1667.61 998.108 1649.74 992.669 1637.65 981.791C1625.57 970.913 1619.52 953.992 1619.52 931.027V828.981C1619.52 826.564 1620.73 825.355 1623.15 825.355H1658.89C1659.76 825.355 1660.53 825.7 1661.22 826.391C1661.91 826.909 1662.26 827.772 1662.26 828.981V928.955C1662.26 939.142 1664.42 947.085 1668.73 952.783C1673.22 958.481 1680.73 961.33 1691.27 961.33C1701.63 961.33 1708.97 958.481 1713.28 952.783C1717.77 947.085 1720.02 939.142 1720.02 928.955V828.981C1720.02 826.564 1721.22 825.355 1723.64 825.355H1759.13C1761.54 825.355 1762.75 826.564 1762.75 828.981V931.027C1762.75 953.819 1756.71 970.74 1744.62 981.791C1732.53 992.669 1714.75 998.108 1691.27 998.108ZM1795.68 995C1793.26 995 1792.05 993.791 1792.05 991.374V828.981C1792.05 826.564 1793.26 825.355 1795.68 825.355H1841C1842.9 825.355 1844.28 826.218 1845.15 827.945L1877.78 892.954C1880.2 897.789 1882.7 902.969 1885.29 908.494C1887.88 914.019 1890.21 919.458 1892.29 924.811C1894.53 930.164 1896.34 934.912 1897.72 939.056H1898.5C1898.16 935.775 1897.81 932.063 1897.47 927.919C1897.29 923.775 1897.03 919.545 1896.69 915.228C1896.52 910.911 1896.34 906.681 1896.17 902.537C1896.17 898.393 1896.17 894.681 1896.17 891.4V828.981C1896.17 826.564 1897.29 825.355 1899.54 825.355H1933.73C1936.14 825.355 1937.35 826.564 1937.35 828.981V991.374C1937.35 993.791 1936.14 995 1933.73 995H1888.4C1886.67 995 1885.29 994.137 1884.26 992.41L1853.18 930.509C1850.76 925.847 1848.34 920.667 1845.92 914.969C1843.68 909.271 1841.44 903.659 1839.19 898.134C1836.95 892.436 1834.87 887.429 1832.97 883.112H1832.2C1832.37 886.738 1832.54 890.623 1832.72 894.767C1832.89 898.911 1832.97 903.228 1832.97 907.717C1833.15 912.034 1833.23 916.264 1833.23 920.408C1833.23 924.552 1833.23 928.523 1833.23 932.322V991.374C1833.23 993.791 1832.02 995 1829.61 995H1795.68ZM1971.46 995C1969.05 995 1967.84 993.791 1967.84 991.374V828.981C1967.84 826.564 1969.05 825.355 1971.46 825.355H2032.33C2059.61 825.355 2079.81 831.657 2092.94 844.262C2106.06 856.694 2112.62 875.169 2112.62 899.688V918.595C2112.62 943.804 2106.06 962.884 2092.94 975.834C2079.81 988.611 2059.61 995 2032.33 995H1971.46ZM2010.57 958.481H2029.48C2043.47 958.481 2053.65 954.941 2060.04 947.862C2066.6 940.61 2069.88 930.336 2069.88 917.041V901.242C2069.88 888.637 2066.6 878.968 2060.04 872.234C2053.65 865.327 2043.47 861.874 2029.48 861.874H2010.57V958.481ZM2119.03 995C2116.27 995 2115.32 993.619 2116.18 990.856L2170.06 828.204C2170.75 826.305 2172.13 825.355 2174.2 825.355H2220.3C2222.37 825.355 2223.76 826.305 2224.45 828.204L2278.58 990.856C2278.92 992.065 2278.84 993.101 2278.32 993.964C2277.97 994.655 2277.11 995 2275.73 995H2236.88C2234.63 995 2233.25 994.05 2232.73 992.151L2206.58 898.393C2204.85 892.177 2203.21 885.961 2201.65 879.745C2200.1 873.529 2198.63 867.399 2197.25 861.356H2196.73C2195.35 867.572 2193.88 873.788 2192.33 880.004C2190.78 886.22 2189.14 892.436 2187.41 898.652L2161.77 991.892C2161.25 993.964 2159.87 995 2157.62 995H2119.03ZM2163.06 964.697L2169.8 931.286H2223.41L2230.4 964.697H2163.06ZM2316.79 995C2314.54 995 2313.42 993.791 2313.42 991.374V862.392H2270.94C2268.53 862.392 2267.32 861.183 2267.32 858.766V828.981C2267.32 826.564 2268.53 825.355 2270.94 825.355H2398.37C2400.62 825.355 2401.74 826.564 2401.74 828.981V858.766C2401.74 861.183 2400.62 862.392 2398.37 862.392H2355.9V991.374C2355.9 993.791 2354.69 995 2352.27 995H2316.79ZM2425.47 995C2423.06 995 2421.85 993.791 2421.85 991.374V828.981C2421.85 826.564 2423.06 825.355 2425.47 825.355H2460.96C2463.37 825.355 2464.58 826.564 2464.58 828.981V991.374C2464.58 993.791 2463.37 995 2460.96 995H2425.47ZM2565.65 998.108C2541.47 998.108 2523.17 992.41 2510.74 981.014C2498.31 969.618 2492.09 952.783 2492.09 930.509V889.846C2492.09 867.399 2498.31 850.564 2510.74 839.341C2523.17 827.945 2541.47 822.247 2565.65 822.247C2589.82 822.247 2608.12 827.945 2620.55 839.341C2633.16 850.564 2639.46 867.399 2639.46 889.846V930.509C2639.46 952.783 2633.16 969.618 2620.55 981.014C2608.12 992.41 2589.82 998.108 2565.65 998.108ZM2565.65 960.812C2576.18 960.812 2583.95 957.963 2588.96 952.265C2594.14 946.567 2596.73 938.365 2596.73 927.66V892.695C2596.73 881.99 2594.14 873.788 2588.96 868.09C2583.95 862.392 2576.18 859.543 2565.65 859.543C2555.29 859.543 2547.52 862.392 2542.34 868.09C2537.33 873.788 2534.82 881.99 2534.82 892.695V927.66C2534.82 938.365 2537.33 946.567 2542.34 952.265C2547.52 957.963 2555.29 960.812 2565.65 960.812ZM2670.56 995C2668.14 995 2666.94 993.791 2666.94 991.374V828.981C2666.94 826.564 2668.14 825.355 2670.56 825.355H2715.89C2717.79 825.355 2719.17 826.218 2720.03 827.945L2752.67 892.954C2755.08 897.789 2757.59 902.969 2760.18 908.494C2762.77 914.019 2765.1 919.458 2767.17 924.811C2769.41 930.164 2771.23 934.912 2772.61 939.056H2773.39C2773.04 935.775 2772.69 932.063 2772.35 927.919C2772.18 923.775 2771.92 919.545 2771.57 915.228C2771.4 910.911 2771.23 906.681 2771.05 902.537C2771.05 898.393 2771.05 894.681 2771.05 891.4V828.981C2771.05 826.564 2772.18 825.355 2774.42 825.355H2808.61C2811.03 825.355 2812.24 826.564 2812.24 828.981V991.374C2812.24 993.791 2811.03 995 2808.61 995H2763.28C2761.56 995 2760.18 994.137 2759.14 992.41L2728.06 930.509C2725.64 925.847 2723.23 920.667 2720.81 914.969C2718.56 909.271 2716.32 903.659 2714.07 898.134C2711.83 892.436 2709.76 887.429 2707.86 883.112H2707.08C2707.25 886.738 2707.43 890.623 2707.6 894.767C2707.77 898.911 2707.86 903.228 2707.86 907.717C2708.03 912.034 2708.12 916.264 2708.12 920.408C2708.12 924.552 2708.12 928.523 2708.12 932.322V991.374C2708.12 993.791 2706.91 995 2704.49 995H2670.56ZM2899.96 998.108C2884.42 998.108 2871.64 996.209 2861.63 992.41C2851.79 988.439 2844.71 982.482 2840.39 974.539C2836.25 966.596 2834.69 956.668 2835.73 944.754C2836.07 942.164 2837.37 940.869 2839.61 940.869H2874.32C2876.74 940.869 2877.86 941.991 2877.69 944.236C2877.51 949.934 2879.33 954.337 2883.13 957.445C2887.1 960.38 2893.14 961.848 2901.26 961.848C2909.37 961.848 2915.24 960.812 2918.87 958.74C2922.67 956.668 2924.57 953.387 2924.57 948.898C2924.57 946.999 2924.13 945.272 2923.27 943.718C2922.41 941.991 2920.85 940.437 2918.61 939.056C2916.36 937.502 2913.26 935.948 2909.29 934.394L2872.25 918.077C2863.27 914.106 2856.28 909.875 2851.27 905.386C2846.26 900.724 2842.72 895.544 2840.65 889.846C2838.58 883.975 2837.54 877.241 2837.54 869.644C2837.72 854.622 2842.9 842.967 2853.08 834.679C2863.27 826.391 2878.55 822.247 2898.93 822.247C2914.12 822.247 2926.72 824.233 2936.74 828.204C2946.75 832.003 2954.01 837.701 2958.5 845.298C2963.16 852.723 2964.88 862.306 2963.68 874.047C2963.5 876.982 2962.29 878.45 2960.05 878.45H2925.34C2924.13 878.45 2923.19 878.105 2922.49 877.414C2921.98 876.551 2921.8 875.428 2921.98 874.047C2922.32 869.385 2920.51 865.5 2916.54 862.392C2912.74 859.284 2907.21 857.73 2899.96 857.73C2893.4 857.73 2888.48 858.852 2885.2 861.097C2881.92 863.169 2880.28 866.277 2880.28 870.421C2880.28 872.493 2880.8 874.392 2881.83 876.119C2882.87 877.673 2884.51 879.227 2886.75 880.781C2889 882.162 2892.02 883.716 2895.82 885.443L2932.6 901.242C2941.4 905.041 2948.39 909.185 2953.57 913.674C2958.75 918.163 2962.38 923.43 2964.45 929.473C2966.52 935.344 2967.47 942.164 2967.3 949.934C2967.13 965.819 2961.78 977.82 2951.24 985.935C2940.71 994.05 2923.62 998.108 2899.96 998.108Z" fill="#FE6B6B"/>
<rect x="2291" y="1185.5" width="686" height="187" rx="93.5" fill="#FE6B6B"/>
<path d="M2396.9 1307.5C2396.01 1307.5 2395.56 1307.02 2395.56 1306.06V1259.98H2380.29C2379.33 1259.98 2378.85 1259.53 2378.85 1258.64V1246.06C2378.85 1245.1 2379.33 1244.62 2380.29 1244.62H2428.68C2429.57 1244.62 2430.02 1245.1 2430.02 1246.06V1258.64C2430.02 1259.53 2429.57 1259.98 2428.68 1259.98H2413.41V1306.06C2413.41 1307.02 2412.93 1307.5 2411.97 1307.5H2396.9ZM2467.8 1308.65C2461.85 1308.65 2456.99 1307.95 2453.21 1306.54C2449.44 1305.07 2446.75 1302.86 2445.15 1299.92C2443.55 1296.91 2442.97 1293.07 2443.42 1288.4C2443.55 1287.44 2444.06 1286.96 2444.96 1286.96H2459.55C2460.51 1286.96 2460.96 1287.37 2460.89 1288.2C2460.76 1289.8 2461.31 1291.12 2462.52 1292.14C2463.74 1293.1 2465.63 1293.58 2468.19 1293.58C2470.81 1293.58 2472.67 1293.32 2473.76 1292.81C2474.91 1292.24 2475.48 1291.34 2475.48 1290.12C2475.48 1289.61 2475.32 1289.13 2475 1288.68C2474.75 1288.24 2474.27 1287.79 2473.56 1287.34C2472.86 1286.89 2471.87 1286.41 2470.59 1285.9L2456.96 1279.85C2453.56 1278.32 2450.91 1276.68 2448.99 1274.96C2447.13 1273.23 2445.82 1271.28 2445.05 1269.1C2444.35 1266.86 2444 1264.27 2444 1261.32C2444.06 1255.69 2446.01 1251.31 2449.85 1248.17C2453.69 1245.04 2459.52 1243.47 2467.32 1243.47C2473.21 1243.47 2478.04 1244.2 2481.82 1245.68C2485.66 1247.08 2488.41 1249.23 2490.08 1252.11C2491.8 1254.99 2492.44 1258.67 2492 1263.15C2491.93 1264.17 2491.45 1264.68 2490.56 1264.68H2475.87C2475.42 1264.68 2475.07 1264.56 2474.81 1264.3C2474.56 1263.98 2474.46 1263.6 2474.52 1263.15C2474.65 1261.8 2474.11 1260.65 2472.89 1259.69C2471.74 1258.67 2470.04 1258.16 2467.8 1258.16C2465.82 1258.16 2464.32 1258.48 2463.29 1259.12C2462.33 1259.76 2461.85 1260.68 2461.85 1261.9C2461.85 1262.41 2462.01 1262.92 2462.33 1263.44C2462.65 1263.88 2463.16 1264.33 2463.87 1264.78C2464.57 1265.23 2465.53 1265.71 2466.75 1266.22L2480.28 1272.08C2483.68 1273.55 2486.33 1275.15 2488.25 1276.88C2490.17 1278.6 2491.52 1280.59 2492.28 1282.83C2493.05 1285.07 2493.4 1287.66 2493.34 1290.6C2493.28 1296.62 2491.23 1301.13 2487.2 1304.14C2483.23 1307.15 2476.76 1308.65 2467.8 1308.65ZM2537.33 1308.65C2528.62 1308.65 2521.78 1306.57 2516.78 1302.41C2511.86 1298.25 2509.39 1291.72 2509.39 1282.83V1269.58C2509.39 1260.49 2511.86 1253.87 2516.78 1249.71C2521.78 1245.55 2528.62 1243.47 2537.33 1243.47C2543.86 1243.47 2549.3 1244.46 2553.65 1246.44C2558 1248.43 2561.17 1251.21 2563.15 1254.8C2565.2 1258.38 2565.9 1262.57 2565.26 1267.37C2565.2 1267.76 2565.04 1268.08 2564.78 1268.33C2564.59 1268.59 2564.27 1268.72 2563.82 1268.72H2548.75C2547.86 1268.72 2547.41 1268.2 2547.41 1267.18C2547.41 1264.75 2546.67 1262.76 2545.2 1261.23C2543.73 1259.63 2541.2 1258.83 2537.62 1258.83C2534.42 1258.83 2531.89 1259.72 2530.03 1261.52C2528.18 1263.24 2527.25 1266.16 2527.25 1270.25V1281.87C2527.25 1285.96 2528.18 1288.91 2530.03 1290.7C2531.89 1292.43 2534.42 1293.29 2537.62 1293.29C2541.46 1293.29 2544.05 1292.46 2545.39 1290.8C2546.74 1289.07 2547.41 1287.12 2547.41 1284.94C2547.41 1283.92 2547.86 1283.4 2548.75 1283.4H2563.82C2564.66 1283.4 2565.14 1283.85 2565.26 1284.75C2565.78 1289.61 2565.01 1293.84 2562.96 1297.42C2560.91 1301 2557.71 1303.79 2553.36 1305.77C2549.07 1307.69 2543.73 1308.65 2537.33 1308.65ZM2610.5 1308.65C2601.28 1308.65 2594.27 1306.51 2589.47 1302.22C2584.67 1297.87 2582.27 1291.44 2582.27 1282.92V1269.2C2582.27 1260.62 2584.67 1254.19 2589.47 1249.9C2594.27 1245.61 2601.28 1243.47 2610.5 1243.47C2619.71 1243.47 2626.72 1245.61 2631.52 1249.9C2636.32 1254.19 2638.72 1260.62 2638.72 1269.2V1282.92C2638.72 1291.44 2636.32 1297.87 2631.52 1302.22C2626.72 1306.51 2619.71 1308.65 2610.5 1308.65ZM2610.5 1293.1C2614.08 1293.1 2616.71 1292.11 2618.37 1290.12C2620.03 1288.14 2620.87 1285.29 2620.87 1281.58V1270.54C2620.87 1266.83 2620.03 1263.98 2618.37 1262C2616.71 1260.01 2614.08 1259.02 2610.5 1259.02C2606.98 1259.02 2604.35 1260.01 2602.63 1262C2600.96 1263.98 2600.13 1266.83 2600.13 1270.54V1281.58C2600.13 1285.29 2600.96 1288.14 2602.63 1290.12C2604.35 1292.11 2606.98 1293.1 2610.5 1293.1ZM2658.59 1307.5C2657.63 1307.5 2657.15 1307.02 2657.15 1306.06V1246.06C2657.15 1245.1 2657.63 1244.62 2658.59 1244.62H2676.93C2677.63 1244.62 2678.17 1244.97 2678.56 1245.68L2689.02 1266.41C2689.85 1268.08 2690.75 1269.96 2691.71 1272.08C2692.67 1274.12 2693.57 1276.17 2694.4 1278.22C2695.23 1280.27 2695.87 1282.06 2696.32 1283.6H2696.7C2696.51 1282.38 2696.35 1281 2696.22 1279.47C2696.09 1277.93 2695.97 1276.33 2695.84 1274.67C2695.77 1273 2695.71 1271.4 2695.65 1269.87C2695.58 1268.33 2695.55 1266.96 2695.55 1265.74V1246.06C2695.55 1245.1 2696 1244.62 2696.89 1244.62H2711.39C2712.29 1244.62 2712.73 1245.1 2712.73 1246.06V1306.06C2712.73 1307.02 2712.29 1307.5 2711.39 1307.5H2692.96C2692.25 1307.5 2691.71 1307.15 2691.33 1306.44L2681.44 1286.96C2680.61 1285.29 2679.74 1283.4 2678.85 1281.29C2678.01 1279.12 2677.18 1276.97 2676.35 1274.86C2675.58 1272.75 2674.88 1270.92 2674.24 1269.39H2673.85C2673.98 1270.6 2674.08 1272.01 2674.14 1273.61C2674.21 1275.15 2674.24 1276.75 2674.24 1278.41C2674.3 1280.08 2674.33 1281.71 2674.33 1283.31C2674.33 1284.84 2674.33 1286.25 2674.33 1287.53V1306.06C2674.33 1307.02 2673.85 1307.5 2672.89 1307.5H2658.59ZM2733.72 1307.5C2732.76 1307.5 2732.28 1307.02 2732.28 1306.06V1246.06C2732.28 1245.1 2732.76 1244.62 2733.72 1244.62H2775.19C2776.09 1244.62 2776.54 1245.1 2776.54 1246.06V1258.64C2776.54 1259.53 2776.09 1259.98 2775.19 1259.98H2750.14V1269.58H2771.55C2772.44 1269.58 2772.89 1270.06 2772.89 1271.02V1283.21C2772.89 1284.11 2772.44 1284.56 2771.55 1284.56H2750.14V1306.06C2750.14 1307.02 2749.69 1307.5 2748.79 1307.5H2733.72ZM2794.98 1307.5C2794.02 1307.5 2793.54 1307.02 2793.54 1306.06V1246.06C2793.54 1245.1 2794.02 1244.62 2794.98 1244.62H2809.95C2810.91 1244.62 2811.39 1245.1 2811.39 1246.06V1306.06C2811.39 1307.02 2810.91 1307.5 2809.95 1307.5H2794.98ZM2855.17 1308.65C2850.37 1308.65 2846.05 1307.72 2842.21 1305.87C2838.37 1304.01 2835.33 1301.2 2833.09 1297.42C2830.92 1293.58 2829.83 1288.72 2829.83 1282.83V1269.29C2829.83 1260.46 2832.29 1253.96 2837.22 1249.8C2842.21 1245.58 2849.06 1243.47 2857.77 1243.47C2864.42 1243.47 2869.86 1244.46 2874.09 1246.44C2878.31 1248.43 2881.32 1251.08 2883.11 1254.41C2884.97 1257.68 2885.67 1261.29 2885.22 1265.26C2885.09 1266.16 2884.61 1266.6 2883.78 1266.6L2868.71 1266.51C2867.88 1266.51 2867.46 1266 2867.46 1264.97C2867.46 1263.82 2867.14 1262.8 2866.5 1261.9C2865.93 1260.94 2864.93 1260.2 2863.53 1259.69C2862.18 1259.12 2860.36 1258.83 2858.05 1258.83C2854.66 1258.83 2852.07 1259.72 2850.28 1261.52C2848.55 1263.24 2847.69 1266.16 2847.69 1270.25V1281.87C2847.69 1285.96 2848.65 1288.91 2850.57 1290.7C2852.49 1292.43 2855.24 1293.29 2858.82 1293.29C2861.83 1293.29 2864.1 1292.75 2865.64 1291.66C2867.24 1290.51 2868.04 1288.84 2868.04 1286.67V1284.65H2858.73C2857.77 1284.65 2857.29 1284.17 2857.29 1283.21V1274.57C2857.29 1273.61 2857.77 1273.13 2858.73 1273.13H2883.97C2884.36 1273.13 2884.68 1273.26 2884.93 1273.52C2885.19 1273.77 2885.32 1274.12 2885.32 1274.57V1289.84C2885.32 1292.27 2885.35 1295.02 2885.41 1298.09C2885.54 1301.1 2885.83 1303.72 2886.28 1305.96C2886.41 1306.41 2886.31 1306.8 2885.99 1307.12C2885.73 1307.37 2885.38 1307.5 2884.93 1307.5H2872.93C2872.55 1307.5 2872.23 1307.4 2871.97 1307.21C2871.78 1306.96 2871.62 1306.6 2871.49 1306.16C2871.3 1305.45 2871.17 1304.52 2871.11 1303.37C2871.11 1302.16 2871.05 1301.13 2870.92 1300.3H2870.73C2869.89 1301.77 2868.81 1303.15 2867.46 1304.43C2866.18 1305.71 2864.55 1306.73 2862.57 1307.5C2860.58 1308.27 2858.12 1308.65 2855.17 1308.65Z" fill="#161720"/>
</svg>
